<?xml version="1.0" encoding="utf-8"?>
<!-- Generator: Adobe Illustrator 24.3.0, SVG Export Plug-In . SVG Version: 6.00 Build 0)  -->
<svg version="1.1" id="Layer_1" xmlns="http://www.w3.org/2000/svg" xmlns:xlink="http://www.w3.org/1999/xlink" x="0px" y="0px"
	 viewBox="0 0 190 88" style="enable-background:new 0 0 190 88;" xml:space="preserve">
<style type="text/css">
	.st0{fill:#B33771;}
	.st1{fill:#56B09E;}
	.st2{fill:#82589F;}
</style>
<g>
	<path class="st0" d="M14.6,13.1h13.8v4.4h-9v14.3h7.4V36h-7.4v18.4h-4.7V13.1z"/>
	<path class="st0" d="M31.9,9.8h4.6v44.6h-4.6V9.8z"/>
	<path class="st0" d="M41,40.1v-2.4c0-10.5,2.5-14.9,8-14.9c5,0,7.1,4.1,7.1,12.2c0,1.2,0,2.6-0.2,4.1H45.6v1.7
		c0,8,0.9,10.4,3.2,10.4c1.8,0,2.6-1.2,3.1-5.4l4.2,0.5c-0.7,6.1-3,8.7-7.3,8.7C43.5,55,41,50.5,41,40.1z M45.6,35.7H52
		c0-0.4,0-0.7,0-1c0-5.4-0.7-8.1-3-8.1C46.7,26.6,45.7,28.8,45.6,35.7z"/>
	<path class="st0" d="M63,38l-4.2-14.6h4.1l2.9,11.5h0.1l3-11.5h4L68.6,38l4.5,16.4H69l-3.2-12.8h-0.1l-3.2,12.8h-4.1L63,38z"/>
</g>
<g>
	<path class="st1" d="M76.1,35.5V32c0-14.5,2.5-19.5,9-19.5c4.7,0,7.2,2.9,8.1,11l-4.5,0.6c-0.5-6-1.5-7.6-3.5-7.6
		c-3.1,0-4.2,3.1-4.2,14.4v5.7C80.9,47.8,82,51,85,51c2,0,3.2-1.7,3.7-8l4.5,0.5C92.5,51.9,89.8,55,85,55
		C78.6,55,76.1,50.1,76.1,35.5z"/>
	<path class="st1" d="M95.8,46.9c0-6.3,2.6-9.9,10.3-10.9v-4.9c0-3.4-0.6-4.5-2.5-4.5c-1.9,0-2.8,1.7-3.4,5.3L96,31.2
		c1-5.4,3.3-8.4,8-8.4c4.3,0,6.7,2.8,6.7,8v18.4c0,1.1,0.2,1.3,0.9,1.3c0.2,0,0.3,0,0.5-0.1v3.9c-0.5,0.1-0.9,0.2-1.4,0.2
		c-1.9,0-3.2-0.8-4-2.5c-1.4,1.9-3,2.9-4.9,2.9C98,54.9,95.8,52,95.8,46.9z M103.1,51.2c1.1,0,2.2-0.6,3.1-2.2
		c-0.1-0.2-0.1-0.5-0.1-0.6v-9.1c-4.1,0.4-5.8,2.5-5.8,7.1C100.3,50,101.4,51.2,103.1,51.2z"/>
	<path class="st1" d="M116.2,23.4h3.5l0.5,5.1c1.3-4.1,3-5.4,5.5-5.4c0.9,0,1.7,0.2,2.2,0.4l-0.3,4.7c-0.6-0.2-1.2-0.3-1.8-0.3
		c-2.1,0-3.7,1.2-5.1,4.7v21.9h-4.5V23.4z"/>
	<path class="st1" d="M129.5,23.4h4.4l3.1,24.9h0.2l3.1-24.9h4.3l-4.9,31h-5.3L129.5,23.4z"/>
	<path class="st1" d="M146.9,40.1v-2.4c0-10.5,2.5-14.9,8-14.9c5,0,7.1,4.1,7.1,12.2c0,1.2,0,2.6-0.2,4.1h-10.4v1.7
		c0,8,0.9,10.4,3.2,10.4c1.8,0,2.6-1.2,3.1-5.4l4.2,0.5c-0.7,6.1-3,8.7-7.3,8.7C149.3,55,146.9,50.5,146.9,40.1z M151.4,35.7h6.4
		c0-0.4,0-0.7,0-1c0-5.4-0.7-8.1-3-8.1C152.5,26.6,151.6,28.8,151.4,35.7z"/>
	<path class="st1" d="M166.4,23.4h3.5l0.5,5.1c1.3-4.1,3-5.4,5.5-5.4c0.9,0,1.7,0.2,2.2,0.4l-0.3,4.7c-0.6-0.2-1.2-0.3-1.8-0.3
		c-2.1,0-3.7,1.2-5.1,4.7v21.9h-4.5V23.4z"/>
</g>
<g>
	<path class="st2" d="M14.5,75.2c0-1.4,0.6-2.1,2.2-2.3v-1.3c0-0.7-0.2-1-0.6-1c-0.5,0-0.7,0.4-0.9,1.1l-0.6-0.1
		c0.2-1,0.7-1.6,1.6-1.6c0.8,0,1.3,0.5,1.3,1.6v4.3c0,0.2,0.1,0.3,0.2,0.3c0,0,0.1,0,0.1,0v0.6c-0.1,0-0.1,0-0.2,0
		c-0.4,0-0.6-0.2-0.7-0.6c-0.3,0.4-0.6,0.7-1,0.7C15,76.8,14.5,76.3,14.5,75.2z M15.9,76.2c0.3,0,0.6-0.2,0.8-0.8v-2.1
		c-1,0.1-1.5,0.6-1.5,1.7C15.2,75.9,15.4,76.2,15.9,76.2z"/>
	<path class="st2" d="M18.6,70.1h0.5l0.1,0.9c0.4-0.6,0.8-1,1.3-1c0.7,0,1.1,0.5,1.1,1.4v5.3h-0.7v-5.2c0-0.5-0.2-0.8-0.6-0.8
		c-0.4,0-0.7,0.3-1,0.9v5.2h-0.7V70.1z"/>
	<path class="st2" d="M24.5,73.6v-0.4c0-2.2,0.5-3.2,1.6-3.2c1.1,0,1.6,1,1.6,3.2v0.4c0,2.2-0.5,3.2-1.6,3.2
		C25,76.8,24.5,75.8,24.5,73.6z M26.9,73.7v-0.6c0-1.9-0.2-2.5-0.9-2.5c-0.6,0-0.9,0.7-0.9,2.5v0.6c0,1.9,0.2,2.6,0.9,2.6
		C26.7,76.2,26.9,75.6,26.9,73.7z"/>
	<path class="st2" d="M29.4,76.1v3.1h-0.7v-9.1h0.5l0.1,0.7c0.3-0.5,0.6-0.8,1.1-0.8c0.9,0,1.4,1,1.4,3.2v0.4c0,2.3-0.5,3.2-1.4,3.2
		C30,76.8,29.6,76.6,29.4,76.1z M29.4,71.3v4.3c0.2,0.4,0.5,0.6,0.8,0.6c0.6,0,0.8-0.7,0.8-2.6v-0.5c0-1.9-0.3-2.6-0.8-2.6
		C29.9,70.6,29.6,70.8,29.4,71.3z"/>
	<path class="st2" d="M32.6,73.6v-0.4c0-2.3,0.5-3.2,1.6-3.2c1,0,1.4,0.9,1.4,2.7c0,0.2,0,0.4,0,0.7h-2.3v0.4c0,1.9,0.2,2.6,0.9,2.6
		c0.4,0,0.6-0.3,0.8-1.1l0.6,0.1c-0.2,1.1-0.6,1.6-1.4,1.6C33,76.8,32.6,75.8,32.6,73.6z M33.3,72.7h1.6c0-0.1,0-0.1,0-0.2
		c0-1.3-0.2-2-0.7-2C33.6,70.6,33.3,71.1,33.3,72.7z"/>
	<path class="st2" d="M36.6,70.1h0.5l0.1,0.9c0.4-0.6,0.8-1,1.3-1c0.7,0,1.1,0.5,1.1,1.4v5.3h-0.7v-5.2c0-0.5-0.2-0.8-0.6-0.8
		c-0.4,0-0.7,0.3-1,0.9v5.2h-0.7V70.1z"/>
	<path class="st2" d="M42.3,75.1l0.6-0.1c0.1,0.9,0.3,1.3,0.8,1.3c0.4,0,0.7-0.4,0.7-1c0-0.6-0.2-1-0.9-1.7c-0.8-0.7-1.1-1.2-1.1-2
		c0-1,0.5-1.6,1.3-1.6c0.8,0,1.2,0.5,1.3,1.6l-0.6,0.1c-0.1-0.7-0.3-1.1-0.7-1.1c-0.4,0-0.7,0.3-0.7,1c0,0.6,0.3,0.9,0.9,1.5
		c0.8,0.8,1.1,1.4,1.1,2.2c0,1-0.5,1.6-1.3,1.6C42.9,76.8,42.4,76.3,42.3,75.1z"/>
	<path class="st2" d="M45.8,73.6v-0.4c0-2.2,0.5-3.2,1.6-3.2c1.1,0,1.6,1,1.6,3.2v0.4c0,2.2-0.5,3.2-1.6,3.2
		C46.3,76.8,45.8,75.8,45.8,73.6z M48.3,73.7v-0.6c0-1.9-0.2-2.5-0.9-2.5s-0.9,0.7-0.9,2.5v0.6c0,1.9,0.2,2.6,0.9,2.6
		S48.3,75.6,48.3,73.7z"/>
	<path class="st2" d="M50,75.4v-5.3h0.7v5.2c0,0.5,0.2,0.8,0.6,0.8c0.3,0,0.7-0.3,1-0.9v-5.2H53v6.6h-0.5l-0.1-0.9
		c-0.4,0.6-0.8,1-1.3,1C50.3,76.8,50,76.3,50,75.4z"/>
	<path class="st2" d="M54.2,70.1h0.5l0.1,1.1c0.3-0.9,0.7-1.2,1.2-1.2c0.2,0,0.3,0,0.4,0.1l-0.1,0.7c-0.1,0-0.2-0.1-0.3-0.1
		c-0.5,0-0.8,0.3-1.2,1.2v4.7h-0.7V70.1z"/>
	<path class="st2" d="M56.9,73.6v-0.4c0-2.2,0.5-3.2,1.6-3.2c0.8,0,1.2,0.5,1.4,1.7l-0.6,0.1c-0.1-0.9-0.3-1.2-0.7-1.2
		c-0.6,0-0.9,0.7-0.9,2.5v0.6c0,1.9,0.2,2.6,0.9,2.6c0.4,0,0.6-0.3,0.8-1.3l0.6,0.1c-0.2,1.3-0.6,1.8-1.4,1.8
		C57.3,76.8,56.9,75.9,56.9,73.6z"/>
	<path class="st2" d="M60.5,73.6v-0.4c0-2.3,0.5-3.2,1.6-3.2c1,0,1.4,0.9,1.4,2.7c0,0.2,0,0.4,0,0.7h-2.3v0.4c0,1.9,0.2,2.6,0.9,2.6
		c0.4,0,0.6-0.3,0.8-1.1l0.6,0.1c-0.2,1.1-0.6,1.6-1.4,1.6C61,76.8,60.5,75.8,60.5,73.6z M61.2,72.7h1.6c0-0.1,0-0.1,0-0.2
		c0-1.3-0.2-2-0.7-2C61.5,70.6,61.2,71.1,61.2,72.7z"/>
	<path class="st2" d="M67.1,74.5c-0.1,0.2-0.2,0.3-0.2,0.5c0,0.4,0.2,0.6,1,0.7c1,0.2,1.5,0.7,1.5,1.9c0,1.1-0.7,1.7-1.7,1.7
		c-1,0-1.6-0.6-1.6-1.6c0-0.6,0.2-1.2,0.7-1.6c-0.3-0.2-0.4-0.5-0.4-0.9c0-0.4,0.1-0.7,0.4-0.9c-0.4-0.4-0.6-1-0.6-2
		c0-1.5,0.6-2.3,1.5-2.3c0.4,0,0.8,0.2,1,0.5c0.2-0.3,0.4-0.4,0.8-0.4c0.1,0,0.2,0,0.2,0l0,0.6c0,0-0.1,0-0.2,0
		c-0.2,0-0.4,0.1-0.5,0.2c0.2,0.4,0.3,0.9,0.3,1.5c0,1.5-0.6,2.3-1.5,2.3C67.4,74.6,67.2,74.6,67.1,74.5z M67.7,78.8
		c0.7,0,1.1-0.4,1.1-1.1c0-0.8-0.3-1.1-1.1-1.2c-0.2,0-0.3-0.1-0.4-0.1c-0.3,0.3-0.5,0.8-0.5,1.3C66.7,78.3,67,78.8,67.7,78.8z
		 M68.4,72.3c0-1.2-0.3-1.8-0.8-1.8c-0.5,0-0.8,0.5-0.8,1.8c0,1.2,0.3,1.8,0.8,1.8C68.1,74.1,68.4,73.5,68.4,72.3z"/>
	<path class="st2" d="M70.3,70.1h0.5l0.1,1.1c0.3-0.9,0.7-1.2,1.2-1.2c0.2,0,0.3,0,0.4,0.1l-0.1,0.7c-0.1,0-0.2-0.1-0.3-0.1
		c-0.5,0-0.8,0.3-1.2,1.2v4.7h-0.7V70.1z"/>
	<path class="st2" d="M73.2,75.4v-5.3h0.7v5.2c0,0.5,0.2,0.8,0.6,0.8c0.3,0,0.7-0.3,1-0.9v-5.2h0.7v6.6h-0.5l-0.1-0.9
		c-0.4,0.6-0.8,1-1.3,1C73.6,76.8,73.2,76.3,73.2,75.4z"/>
	<path class="st2" d="M77.5,70.1H78l0.1,0.9c0.4-0.6,0.8-1,1.3-1c0.7,0,1.1,0.5,1.1,1.4v5.3h-0.7v-5.2c0-0.5-0.2-0.8-0.6-0.8
		c-0.4,0-0.7,0.3-1,0.9v5.2h-0.7V70.1z"/>
	<path class="st2" d="M82,75.5v-4.7h-0.8v-0.6H82v-2.1h0.7v2.1h1.2v0.6h-1.2v4.6c0,0.6,0.2,0.8,0.7,0.8c0.2,0,0.3,0,0.5-0.1l0.1,0.6
		c-0.2,0.1-0.5,0.1-0.8,0.1C82.4,76.8,82,76.4,82,75.5z"/>
	<path class="st2" d="M86.2,74.5c0-1.2,0.4-2.2,1-2.9c-0.3-0.8-0.4-1.4-0.4-2c0-1.2,0.6-1.9,1.5-1.9c0.9,0,1.3,0.6,1.4,1.9l-0.6,0.1
		c-0.1-1-0.3-1.4-0.8-1.4c-0.5,0-0.8,0.5-0.8,1.3c0,0.6,0.2,1.3,0.5,2.1c0.3,0.8,0.8,1.7,1.4,2.8c0.1-0.6,0.2-1.5,0.2-2.5v-0.4h0.6
		V72c0,1.3-0.2,2.4-0.5,3.1c0.3,0.5,0.5,1,0.8,1.4l-0.6,0.4c-0.2-0.3-0.4-0.7-0.6-1.1c-0.4,0.6-0.9,1-1.4,1
		C86.8,76.8,86.2,76,86.2,74.5z M87.9,76.2c0.4,0,0.8-0.3,1.1-0.9c-0.6-1.2-1.2-2.3-1.6-3.2c-0.4,0.6-0.6,1.3-0.6,2.3
		C86.9,75.7,87.3,76.2,87.9,76.2z"/>
	<path class="st2" d="M93.2,67.1h0.7v9.6h-0.7V67.1z"/>
	<path class="st2" d="M94.9,73.6v-0.4c0-2.3,0.5-3.2,1.6-3.2c1,0,1.4,0.9,1.4,2.7c0,0.2,0,0.4,0,0.7h-2.3v0.4c0,1.9,0.2,2.6,0.9,2.6
		c0.4,0,0.6-0.3,0.8-1.1l0.6,0.1c-0.2,1.1-0.6,1.6-1.4,1.6C95.4,76.8,94.9,75.8,94.9,73.6z M95.6,72.7h1.6c0-0.1,0-0.1,0-0.2
		c0-1.3-0.2-2-0.7-2C95.9,70.6,95.7,71.1,95.6,72.7z"/>
	<path class="st2" d="M98.6,75.1l0.6-0.1c0.1,0.9,0.3,1.3,0.8,1.3c0.4,0,0.7-0.4,0.7-1c0-0.6-0.2-1-0.9-1.7c-0.8-0.7-1.1-1.2-1.1-2
		c0-1,0.5-1.6,1.3-1.6c0.8,0,1.2,0.5,1.3,1.6l-0.6,0.1c-0.1-0.7-0.3-1.1-0.7-1.1c-0.4,0-0.7,0.3-0.7,1c0,0.6,0.3,0.9,0.9,1.5
		c0.8,0.8,1.1,1.4,1.1,2.2c0,1-0.5,1.6-1.3,1.6C99.1,76.8,98.6,76.3,98.6,75.1z"/>
	<path class="st2" d="M102,75.1l0.6-0.1c0.1,0.9,0.3,1.3,0.8,1.3c0.4,0,0.7-0.4,0.7-1c0-0.6-0.2-1-0.9-1.7c-0.8-0.7-1.1-1.2-1.1-2
		c0-1,0.5-1.6,1.3-1.6s1.2,0.5,1.3,1.6l-0.6,0.1c-0.1-0.7-0.3-1.1-0.7-1.1c-0.4,0-0.7,0.3-0.7,1c0,0.6,0.3,0.9,0.9,1.5
		c0.8,0.8,1.1,1.4,1.1,2.2c0,1-0.5,1.6-1.3,1.6C102.5,76.8,102.1,76.3,102,75.1z"/>
	<path class="st2" d="M107.6,67.1h0.7v3.6c0.3-0.5,0.6-0.8,1-0.8c0.9,0,1.4,1,1.4,3.2v0.4c0,2.3-0.5,3.2-1.4,3.2
		c-0.4,0-0.8-0.3-1.1-0.8l-0.1,0.7h-0.5V67.1z M108.3,71.3v4.2c0.2,0.5,0.5,0.7,0.9,0.7c0.6,0,0.8-0.7,0.8-2.6v-0.5
		c0-1.9-0.3-2.6-0.8-2.6C108.8,70.6,108.5,70.8,108.3,71.3z"/>
	<path class="st2" d="M111.4,75.2c0-1.4,0.6-2.1,2.2-2.3v-1.3c0-0.7-0.2-1-0.6-1c-0.5,0-0.7,0.4-0.9,1.1l-0.6-0.1
		c0.2-1,0.7-1.6,1.6-1.6c0.8,0,1.3,0.5,1.3,1.6v4.3c0,0.2,0.1,0.3,0.2,0.3c0,0,0.1,0,0.1,0v0.6c-0.1,0-0.1,0-0.2,0
		c-0.4,0-0.6-0.2-0.7-0.6c-0.3,0.4-0.6,0.7-1,0.7C111.9,76.8,111.4,76.3,111.4,75.2z M112.8,76.2c0.3,0,0.6-0.2,0.8-0.8v-2.1
		c-1,0.1-1.5,0.6-1.5,1.7C112.1,75.9,112.4,76.2,112.8,76.2z"/>
	<path class="st2" d="M115.2,75.1l0.6-0.1c0.1,0.9,0.3,1.3,0.8,1.3c0.4,0,0.7-0.4,0.7-1c0-0.6-0.2-1-0.9-1.7c-0.8-0.7-1.1-1.2-1.1-2
		c0-1,0.5-1.6,1.3-1.6c0.8,0,1.2,0.5,1.3,1.6l-0.6,0.1c-0.1-0.7-0.3-1.1-0.7-1.1c-0.4,0-0.7,0.3-0.7,1c0,0.6,0.3,0.9,0.9,1.5
		c0.8,0.8,1.1,1.4,1.1,2.2c0,1-0.5,1.6-1.3,1.6C115.7,76.8,115.3,76.3,115.2,75.1z"/>
	<path class="st2" d="M118.7,73.6v-0.4c0-2.3,0.5-3.2,1.6-3.2c1,0,1.4,0.9,1.4,2.7c0,0.2,0,0.4,0,0.7h-2.3v0.4
		c0,1.9,0.2,2.6,0.9,2.6c0.4,0,0.6-0.3,0.8-1.1l0.6,0.1c-0.2,1.1-0.6,1.6-1.4,1.6C119.2,76.8,118.7,75.8,118.7,73.6z M119.4,72.7
		h1.6c0-0.1,0-0.1,0-0.2c0-1.3-0.2-2-0.7-2C119.8,70.6,119.5,71.1,119.4,72.7z"/>
	<path class="st2" d="M122.5,73.6v-0.4c0-2.3,0.5-3.2,1.4-3.2c0.4,0,0.7,0.3,1,0.7v-3.6h0.7v9.6h-0.5L125,76
		c-0.3,0.5-0.6,0.8-1.1,0.8C123,76.8,122.5,75.8,122.5,73.6z M124,76.2c0.3,0,0.6-0.3,0.9-0.7v-4.2c-0.2-0.4-0.5-0.7-0.8-0.7
		c-0.6,0-0.8,0.7-0.8,2.6v0.5C123.2,75.5,123.5,76.2,124,76.2z"/>
	<path class="st2" d="M128.4,70.1h0.6l0.6,5.5h0l0.7-5.5h0.6l0.7,5.5h0l0.7-5.5h0.6l-0.9,6.6h-0.7l-0.7-5.6h0l-0.7,5.6h-0.7
		L128.4,70.1z"/>
	<path class="st2" d="M133.7,73.6v-0.4c0-2.3,0.5-3.2,1.6-3.2c1,0,1.4,0.9,1.4,2.7c0,0.2,0,0.4,0,0.7h-2.3v0.4
		c0,1.9,0.2,2.6,0.9,2.6c0.4,0,0.6-0.3,0.8-1.1l0.6,0.1c-0.2,1.1-0.6,1.6-1.4,1.6C134.2,76.8,133.7,75.8,133.7,73.6z M134.4,72.7
		h1.6c0-0.1,0-0.1,0-0.2c0-1.3-0.2-2-0.7-2C134.7,70.6,134.4,71.1,134.4,72.7z"/>
	<path class="st2" d="M137.7,67.1h0.7v3.6c0.3-0.5,0.6-0.8,1-0.8c0.9,0,1.4,1,1.4,3.2v0.4c0,2.3-0.5,3.2-1.4,3.2
		c-0.4,0-0.8-0.3-1.1-0.8l-0.1,0.7h-0.5V67.1z M138.4,71.3v4.2c0.2,0.5,0.5,0.7,0.9,0.7c0.6,0,0.8-0.7,0.8-2.6v-0.5
		c0-1.9-0.3-2.6-0.8-2.6C138.9,70.6,138.6,70.8,138.4,71.3z"/>
	<path class="st2" d="M141.5,75.1l0.6-0.1c0.1,0.9,0.3,1.3,0.8,1.3c0.4,0,0.7-0.4,0.7-1c0-0.6-0.2-1-0.9-1.7c-0.8-0.7-1.1-1.2-1.1-2
		c0-1,0.5-1.6,1.3-1.6s1.2,0.5,1.3,1.6l-0.6,0.1c-0.1-0.7-0.3-1.1-0.7-1.1c-0.4,0-0.7,0.3-0.7,1c0,0.6,0.3,0.9,0.9,1.5
		c0.8,0.8,1.1,1.4,1.1,2.2c0,1-0.5,1.6-1.3,1.6C142,76.8,141.5,76.3,141.5,75.1z"/>
	<path class="st2" d="M145.3,67.1h0.7v1.3h-0.7V67.1z M145.3,70.1h0.7v6.6h-0.7V70.1z"/>
	<path class="st2" d="M147.5,75.5v-4.7h-0.8v-0.6h0.8v-2.1h0.7v2.1h1.2v0.6h-1.2v4.6c0,0.6,0.2,0.8,0.7,0.8c0.2,0,0.3,0,0.5-0.1
		l0.1,0.6c-0.2,0.1-0.5,0.1-0.8,0.1C147.9,76.8,147.5,76.4,147.5,75.5z"/>
	<path class="st2" d="M149.9,73.6v-0.4c0-2.3,0.5-3.2,1.6-3.2c1,0,1.4,0.9,1.4,2.7c0,0.2,0,0.4,0,0.7h-2.3v0.4
		c0,1.9,0.2,2.6,0.9,2.6c0.4,0,0.6-0.3,0.8-1.1l0.6,0.1c-0.2,1.1-0.6,1.6-1.4,1.6C150.4,76.8,149.9,75.8,149.9,73.6z M150.6,72.7
		h1.6c0-0.1,0-0.1,0-0.2c0-1.3-0.2-2-0.7-2C150.9,70.6,150.6,71.1,150.6,72.7z"/>
	<path class="st2" d="M155.7,67.1h0.7v3.6c0.3-0.5,0.6-0.8,1-0.8c0.9,0,1.4,1,1.4,3.2v0.4c0,2.3-0.5,3.2-1.4,3.2
		c-0.4,0-0.8-0.3-1.1-0.8l-0.1,0.7h-0.5V67.1z M156.4,71.3v4.2c0.2,0.5,0.5,0.7,0.9,0.7c0.6,0,0.8-0.7,0.8-2.6v-0.5
		c0-1.9-0.3-2.6-0.8-2.6C156.9,70.6,156.7,70.8,156.4,71.3z"/>
	<path class="st2" d="M159.8,75.4v-5.3h0.7v5.2c0,0.5,0.2,0.8,0.6,0.8c0.3,0,0.7-0.3,1-0.9v-5.2h0.7v6.6h-0.5l-0.1-0.9
		c-0.4,0.6-0.8,1-1.3,1C160.2,76.8,159.8,76.3,159.8,75.4z"/>
	<path class="st2" d="M164.1,67.1h0.7v1.3h-0.7V67.1z M164.1,70.1h0.7v6.6h-0.7V70.1z"/>
	<path class="st2" d="M166.1,67.1h0.7v9.6h-0.7V67.1z"/>
	<path class="st2" d="M167.9,73.6v-0.4c0-2.3,0.5-3.2,1.4-3.2c0.4,0,0.7,0.3,1,0.7v-3.6h0.7v9.6h-0.5l-0.1-0.7
		c-0.3,0.5-0.6,0.8-1.1,0.8C168.4,76.8,167.9,75.8,167.9,73.6z M169.4,76.2c0.3,0,0.6-0.3,0.9-0.7v-4.2c-0.2-0.4-0.5-0.7-0.8-0.7
		c-0.6,0-0.8,0.7-0.8,2.6v0.5C168.6,75.5,168.8,76.2,169.4,76.2z"/>
	<path class="st2" d="M172,73.6v-0.4c0-2.3,0.5-3.2,1.6-3.2c1,0,1.4,0.9,1.4,2.7c0,0.2,0,0.4,0,0.7h-2.3v0.4c0,1.9,0.2,2.6,0.9,2.6
		c0.4,0,0.6-0.3,0.8-1.1l0.6,0.1c-0.2,1.1-0.6,1.6-1.4,1.6C172.5,76.8,172,75.8,172,73.6z M172.7,72.7h1.6c0-0.1,0-0.1,0-0.2
		c0-1.3-0.2-2-0.7-2C173,70.6,172.7,71.1,172.7,72.7z"/>
	<path class="st2" d="M176,70.1h0.5l0.1,1.1c0.3-0.9,0.7-1.2,1.2-1.2c0.2,0,0.3,0,0.4,0.1l-0.1,0.7c-0.1,0-0.2-0.1-0.3-0.1
		c-0.5,0-0.8,0.3-1.2,1.2v4.7H176V70.1z"/>
</g>
</svg>
