<?xml version="1.0" encoding="utf-8"?>
<!-- Generator: Adobe Illustrator 25.2.0, SVG Export Plug-In . SVG Version: 6.00 Build 0)  -->
<svg version="1.1" xmlns="http://www.w3.org/2000/svg" xmlns:xlink="http://www.w3.org/1999/xlink" x="0px" y="0px"
	 viewBox="0 0 3200 2000" style="enable-background:new 0 0 3200 2000;" xml:space="preserve">
<style type="text/css">
	.st0{fill:#DFF9FB;}
	.st1{fill:#95AFC0;}
	.st2{fill:#F6E58D;}
	.st3{fill:#E2DFD3;}
	.st4{fill:#535C68;stroke:#95AFC0;stroke-width:14;stroke-miterlimit:10;}
	.st5{fill:#A7AEB5;stroke:#95AFC0;stroke-width:14;stroke-miterlimit:10;}
	.st6{fill:none;stroke:#95AFC0;stroke-width:14;stroke-miterlimit:10;}
	.st7{opacity:0.53;fill:#535C68;stroke:#95AFC0;stroke-width:14;stroke-miterlimit:10;}
	.st8{opacity:0.53;fill:none;stroke:#95AFC0;stroke-width:14;stroke-miterlimit:10;}
	.st9{opacity:0.53;}
	.st10{fill:none;stroke:#95AFC0;stroke-width:10;stroke-miterlimit:10;}
	.st11{fill:none;}
	.st12{fill:#535C68;}
	.st13{fill:#22A6B3;}
	.st14{fill:#FFFFFF;}
	.st15{fill:#F9CA24;}
	.st16{fill:#FFBE76;}
	.st17{fill:none;stroke:#95AFC0;stroke-width:12;stroke-miterlimit:10;}
</style>
<g id="Layer_2">
	<g>
		<path class="st0" d="M233,1704c-19.3,0-35-15.7-35-35V386c0-19.3,15.7-35,35-35h1283c19.3,0,35,15.7,35,35v1283
			c0,19.3-15.7,35-35,35H233z"/>
		<path class="st1" d="M1516,356c16.5,0,30,13.5,30,30v1283c0,16.5-13.5,30-30,30H233c-16.5,0-30-13.5-30-30V386
			c0-16.5,13.5-30,30-30H1516 M1516,346H233c-22,0-40,18-40,40v1283c0,22,18,40,40,40h1283c22,0,40-18,40-40V386
			C1556,364,1538,346,1516,346L1516,346z"/>
	</g>
</g>
<g id="Layer_1">
	<g>
		<path d="M247.5,260.8l2.3-3.4c6.9,4.4,15.6,7.2,24.2,7.2c12.6,0,19.9-6,19.9-15.4c0-8.3-4.8-12.3-20.6-16.4
			c-16.1-4.1-23.7-9.2-23.7-19.3c0-11.9,9.4-19.3,24.5-19.3c8.5,0,16.7,2.9,22.6,6.4l-2.2,3.3c-5.2-3.3-13-6.1-20.4-6.1
			c-12.5,0-20.4,5.7-20.4,15.5c0,8,5.6,11.8,20.9,15.7c16.3,4.1,23.4,9.4,23.4,20.1c0,11.4-8.8,19.2-24,19.2
			C264.5,268.3,255.3,265.6,247.5,260.8z"/>
		<path d="M313.9,195.6h46.6v3.7H318v29.6h38.5v3.6H318v30.9h43.3v3.7h-47.3V195.6z"/>
		<path d="M376.7,195.6h28.8c17,0,22.6,10.3,22.6,20.4v0.2c0,8.3-4.5,17.7-17,19.9l16.6,30.9h-4.5l-15.9-30.5
			c-0.7,0.1-1.3,0.1-2,0.1h-24.5V267h-4.1V195.6z M405.3,233c14.2,0,18.8-8.9,18.8-16.8V216c0-8.3-4.5-16.7-18.6-16.7h-24.7V233
			H405.3z"/>
		<path d="M436.2,195.6h4.3l25,66.9h0.1l25-66.9h4.3L467.7,267h-4.4L436.2,195.6z"/>
		<path d="M508.6,195.6h46.6v3.7h-42.5v29.6h38.5v3.6h-38.5v30.9h43.3v3.7h-47.3V195.6z"/>
		<path d="M571.4,195.6h28.8c17,0,22.6,10.3,22.6,20.4v0.2c0,8.3-4.5,17.7-17,19.9l16.6,30.9H618L602,236.5c-0.7,0.1-1.3,0.1-2,0.1
			h-24.5V267h-4.1V195.6z M600,233c14.2,0,18.8-8.9,18.8-16.8V216c0-8.3-4.5-16.7-18.6-16.7h-24.7V233H600z"/>
		<path d="M660.9,248.3h17.6v2.5h-17.6V248.3z"/>
		<path d="M708,220.8h2.6v43.8h27.6v2.4H708V220.8z"/>
		<path d="M745.6,217.2h2.6v6.5h-2.6V217.2z M745.6,233.2h2.5V267h-2.5V233.2z"/>
		<path d="M760.4,233.2h2.2l0.3,5.6c4-4,8-6.5,12.8-6.5c6.7,0,10.2,4,10.2,10.7v24h-2.6v-24c0-5.4-2.6-8.5-7.9-8.5
			c-4.8,0-8.6,2.7-12.4,6.9V267h-2.6V233.2z"/>
		<path d="M797.2,257.2v-24h2.6v24c0,5.4,2.5,8.4,7.7,8.4c4.7,0,8.5-2.7,12.3-6.8v-25.7h2.6V267h-2.2l-0.3-5.7
			c-4,4-7.9,6.5-12.7,6.5C800.7,267.9,797.2,263.9,797.2,257.2z"/>
		<path d="M841.6,249.8l-11.3-16.6h3l9.8,14.7h0.1l9.8-14.7h3l-11.3,16.6l11.6,17.2h-3l-10.1-15.3h-0.1L833,267h-3L841.6,249.8z"/>
		<path d="M886.1,217.2h2.5l-26.3,63h-2.5L886.1,217.2z"/>
		<path d="M906.5,220.8h3.1l18,46.2h-2.7l-5-13h-23.6l-5,13h-2.7L906.5,220.8z M897.2,251.7H919l-10.9-28.2H908L897.2,251.7z"/>
		<path d="M935.5,233.2h2l0.4,5.1c2.8-3.1,6.5-5.9,11.8-5.9c8.1,0,13.4,6.5,13.4,17.7v0.1c0,11.2-5.3,17.8-13.4,17.8
			c-4.9,0-8.7-2.6-11.7-5.7v18.1h-2.6V233.2z M938.1,240.8v18.7c3.1,3.6,7.1,6.1,11.4,6.1c6.8,0,11.2-5.7,11.2-15.5V250
			c0-9.7-4.4-15.5-11.2-15.5C944.6,234.5,941,237.2,938.1,240.8z"/>
		<path d="M969.7,259.6c0-7.7,7-10.9,21.1-11.5v-5.9c0-4.5-2.4-7.5-8.3-7.5c-3.7,0-7.5,1.3-10.6,3.1l-1.2-2.1
			c3.4-1.8,7.7-3.3,11.9-3.3c7.5,0,10.8,3.9,10.8,9.7v19.6c0,2.5,1,3.4,3,3.4c0.4,0,0.7-0.1,0.8-0.1v2.2c-0.1,0-0.5,0.1-0.9,0.1
			c-3.2,0-5.1-1.3-5.3-4.6c-3.4,3.4-7.3,5.3-11.8,5.3C973.5,267.9,969.7,264.6,969.7,259.6z M979.4,265.7c4.4,0,8-2,11.4-5.6v-10
			c-12.3,0.5-18.5,3-18.5,9.4C972.3,263.3,975.1,265.7,979.4,265.7z"/>
		<path d="M1003.1,250.2V250c0-11.3,6.3-17.8,15.3-17.8c3.8,0,7.2,1.3,9.9,3.2l-1.5,1.9c-2.4-1.8-5.1-2.8-8.4-2.8
			c-7.5,0-12.7,5.7-12.7,15.5v0.1c0,9.8,4.8,15.4,12.5,15.4c3.7,0,6.7-1.3,9.5-3.5l1.5,1.9c-3.2,2.4-6.7,3.8-11.1,3.8
			C1009,267.9,1003.1,261.4,1003.1,250.2z"/>
		<path d="M1037.2,217.2h2.6v21.6c4-4,7.9-6.5,12.7-6.5c6.7,0,10.2,4,10.2,10.7v24h-2.6v-24c0-5.4-2.6-8.5-7.9-8.5
			c-4.8,0-8.6,2.7-12.4,6.9V267h-2.6V217.2z"/>
		<path d="M1071.9,250.5v-0.1c0-11.5,6.4-18.1,15.4-18.1c8.6,0,12.8,5.7,12.8,14.1c0,0.8-0.1,2-0.1,2.7h-25.4c0,0.5,0,0.9,0,1.4v0.1
			c0,9.8,4.9,15.1,12.9,15.1c3.7,0,7.2-1.2,10.2-3.4l1.4,1.9c-3.6,2.4-7.4,3.7-11.8,3.7C1078,267.9,1071.9,261.7,1071.9,250.5z
			 M1074.7,246.9h22.8v-0.6c0-6.9-3.1-11.8-10.3-11.8C1080.6,234.5,1075.7,238.7,1074.7,246.9z"/>
		<path d="M1125.8,248.3h17.6v2.5h-17.6V248.3z"/>
		<path d="M1172.8,220.8h3.3l17.2,29.4l17.2-29.4h3.2V267h-2.5v-42.6h-0.1l-17.8,30.6l-17.8-30.6h-0.1V267h-2.6V220.8z"/>
		<path d="M1222.6,280.1l0.9-2.2c1.1,0.5,2.4,0.7,3.7,0.7c2.8,0,4.4-1.3,5.9-5.3l2.3-6.5l-12.4-33.7h2.7l11,30.5h0.1l10.8-30.5h2.6
			l-14.6,40.7c-1.8,5.2-4.5,7-8.2,7C1225.6,280.9,1224.1,280.7,1222.6,280.1z"/>
		<path d="M1255.1,263l1.5-2.2c4.5,2.8,10.1,4.7,15.6,4.7c8.2,0,12.9-3.9,12.9-10c0-5.3-3.1-8-13.3-10.6
			c-10.4-2.6-15.3-5.9-15.3-12.5c0-7.7,6.1-12.5,15.8-12.5c5.5,0,10.8,1.8,14.7,4.2l-1.5,2.1c-3.4-2.1-8.4-4-13.2-4
			c-8.1,0-13.2,3.7-13.2,10c0,5.1,3.6,7.7,13.5,10.2c10.6,2.6,15.1,6.1,15.1,13c0,7.4-5.7,12.4-15.5,12.4
			C1266.1,267.9,1260.1,266.1,1255.1,263z"/>
		<path d="M1294.9,244v-0.1c0-14.6,9.4-24,21.8-24c12.4,0,21.9,9.4,21.9,24v0.1c0,7-2.2,12.8-5.9,16.9l6.2,5.8l-1.8,1.9l-6.1-5.9
			c-3.8,3.3-8.7,5.1-14.2,5.1C1304.4,267.7,1294.9,258.5,1294.9,244z M1329.1,260.9l-11.1-10.6l1.7-1.7l11.1,10.6
			c3.2-3.7,5.1-8.9,5.1-15.2v-0.1c0-13.1-8.3-21.6-19.2-21.6s-19.2,8.5-19.2,21.6v0.1c0,13,8.3,21.4,19.2,21.4
			C1321.5,265.4,1325.8,263.8,1329.1,260.9z"/>
		<path d="M1349.4,220.8h2.6v43.8h27.6v2.4h-30.2V220.8z"/>
		<path d="M1832.9,231.4v-0.2c0-21.9,13.8-37,34.4-37c8.5,0,16.1,2.7,22.2,7.2l-2.4,3.1c-5.5-4.4-12.2-6.6-19.8-6.6
			c-18.4,0-30.2,13.7-30.2,33.4v0.2c0,19.7,11.6,33.4,29.5,33.4c8.3,0,15.6-2.8,21.5-7.7l2.6,3c-6.8,5.5-15,8.4-24.2,8.4
			C1846.4,268.4,1832.9,253.3,1832.9,231.4z"/>
		<path d="M1903.2,190h3.9v77h-3.9V190z"/>
		<path d="M1926.3,190h4v10.1h-4V190z M1926.5,214.7h3.9V267h-3.9V214.7z"/>
		<path d="M1945.4,241.5v-0.2c0-17.9,9.9-28.1,23.8-28.1c13.4,0,19.8,8.9,19.8,21.7c0,1.2-0.1,3.1-0.2,4.2h-39.3c0,0.7,0,1.4,0,2.1
			v0.2c0,15.1,7.7,23.4,19.9,23.4c5.7,0,11.1-1.8,15.8-5.2l2.1,3c-5.5,3.8-11.4,5.7-18.3,5.7
			C1954.9,268.3,1945.4,258.7,1945.4,241.5z M1949.8,235.9h35.3V235c0-10.7-4.8-18.3-15.9-18.3
			C1958.9,216.7,1951.4,223.2,1949.8,235.9z"/>
		<path d="M2003.3,214.7h3.5l0.4,8.7c6.2-6.2,12.3-10,19.8-10c10.3,0,15.7,6.1,15.7,16.5V267h-4v-37.1c0-8.4-4-13.2-12.2-13.2
			c-7.3,0-13.4,4.2-19.2,10.6V267h-4V214.7z"/>
		<path d="M2063.8,254.8v-36.2h-10.6v-3.4h10.6v-16.8h3.9v16.8h17.3v3.4h-17.3v36c0,7.3,3.7,10.1,9.8,10.1c2.7,0,5.4-0.8,7.9-2.2
			l1.5,3.3c-2.9,1.5-6.2,2.4-9.7,2.4C2068.9,268.1,2063.8,264.2,2063.8,254.8z"/>
		<path d="M2091.9,263.6l2.1-3.3c5,3,10.4,4.6,16.9,4.6c8.8,0,14-4.5,14-10.8c0-6.9-4.6-9.4-14.5-11.8c-11.1-2.8-16.8-5.9-16.8-14.7
			c0-8.3,6.4-14.4,17.9-14.4c5.8,0,11.4,1.6,16,4l-1.9,3.3c-4.2-2.3-9.1-3.9-14.1-3.9c-9,0-14,4.5-14,10.8c0,6.7,4.3,8.9,14.3,11.4
			c11.1,2.8,17,5.9,17,15.1c0,8.5-6.7,14.5-17.9,14.5C2103.7,268.4,2097.7,266.8,2091.9,263.6z"/>
	</g>
	<g>
		<path class="st2" d="M1697,703c-19.3,0-35-15.7-35-35V387c0-19.3,15.7-35,35-35h582c19.3,0,35,15.7,35,35v281
			c0,19.3-15.7,35-35,35H1697z"/>
		<path class="st1" d="M2279,357c16.5,0,30,13.5,30,30v281c0,16.5-13.5,30-30,30h-582c-16.5,0-30-13.5-30-30V387
			c0-16.5,13.5-30,30-30H2279 M2279,347h-582c-22,0-40,18-40,40v281c0,22,18,40,40,40h582c22,0,40-18,40-40V387
			C2319,365,2301,347,2279,347L2279,347z"/>
	</g>
	<g>
		<path class="st2" d="M2445,599c-19.3,0-35-15.7-35-35V386c0-19.3,15.7-35,35-35h48c19.3,0,35,15.7,35,35v178c0,19.3-15.7,35-35,35
			H2445z"/>
		<path class="st1" d="M2493,356c16.5,0,30,13.5,30,30v178c0,16.5-13.5,30-30,30h-48c-16.5,0-30-13.5-30-30V386
			c0-16.5,13.5-30,30-30H2493 M2493,346h-48c-22,0-40,18-40,40v178c0,22,18,40,40,40h48c22,0,40-18,40-40V386
			C2533,364,2515,346,2493,346L2493,346z"/>
	</g>
	<g>
		<path class="st2" d="M2452,903c-19.3,0-35-15.7-35-35V749c0-19.3,15.7-35,35-35h316c19.3,0,35,15.7,35,35v119
			c0,19.3-15.7,35-35,35H2452z"/>
		<path class="st1" d="M2768,719c16.5,0,30,13.5,30,30v119c0,16.5-13.5,30-30,30h-316c-16.5,0-30-13.5-30-30V749
			c0-16.5,13.5-30,30-30H2768 M2768,709h-316c-22,0-40,18-40,40v119c0,22,18,40,40,40h316c22,0,40-18,40-40V749
			C2808,727,2790,709,2768,709L2768,709z"/>
	</g>
	<g>
		<path class="st3" d="M2396,1024c-8.9,0-15.6-3-19.1-8.3c-3.4-5.4-3.2-12.8,0.5-20.8l22.2-47.5c8.4-18.1,32.4-33.4,52.4-33.4h316
			c20.2,0,46,14.5,56.5,31.8l31.4,51.7c4.5,7.5,5.6,14.3,2.8,19.1c-2.7,4.8-9,7.5-17.8,7.5H2396z"/>
		<path class="st1" d="M2768,919c18.6,0,42.6,13.5,52.2,29.4l31.4,51.7c3.5,5.7,4.5,10.9,2.8,14c-1.7,3.1-6.8,4.9-13.4,4.9h-445
			c-7.1,0-12.4-2.1-14.8-6c-2.5-3.9-2.2-9.6,0.8-16l22.2-47.5c7.7-16.5,29.6-30.5,47.9-30.5H2768 M2768,909h-316
			c-22,0-47.6,16.3-56.9,36.2l-22.2,47.5c-9.3,19.9,1.1,36.2,23.1,36.2h445c22,0,30.6-15.4,19.2-34.2l-31.4-51.7
			C2817.4,924.4,2790,909,2768,909L2768,909z"/>
	</g>
	<g>
		<path d="M2143.7,1506.6h19c23.7,0,36.7,13.5,36.7,35.6v0.2c0,22.1-13.1,35.6-36.7,35.6h-19V1506.6z M2162.7,1574.3
			c21.2,0,32.5-12,32.5-31.9v-0.2c0-19.9-11.3-31.9-32.5-31.9h-14.9v64.1H2162.7z"/>
		<path d="M2210.7,1551.9v-0.2c0-17.1,9.8-27.4,23.7-27.4c13.9,0,23.6,10.3,23.6,27.4v0.2c0,17.1-9.7,27.5-23.6,27.5
			C2220.5,1579.4,2210.7,1569,2210.7,1551.9z M2254,1551.9v-0.2c0-15.1-8-24.1-19.6-24.1s-19.6,9-19.6,24.1v0.2
			c0,15.2,8,24.1,19.6,24.1S2254,1567.1,2254,1551.9z"/>
		<path d="M2272.7,1525.7h3.5l0.4,8.7c6.1-6.1,11.8-10,19.1-10c7.9,0,12.6,3.8,14.3,10.5c6.8-7,12.6-10.5,19.7-10.5
			c9.9,0,15.1,6.1,15.1,16.5v37.1h-4v-37.1c0-8.4-3.8-13.1-11.6-13.1c-7,0-12.8,4.3-18.6,10.6c0.1,0.7,0.1,1.6,0.1,2.4v37.1h-4
			v-37.1c0-8.4-3.8-13.2-11.6-13.2c-7,0-12.6,4.3-18.4,10.6v39.7h-4V1525.7z"/>
		<path d="M2358,1566.5c0-11.9,10.8-16.8,32.5-17.9v-9.2c0-6.9-3.8-11.5-12.9-11.5c-5.7,0-11.6,2-16.4,4.8l-1.8-3.3
			c5.2-2.9,11.8-5.1,18.4-5.1c11.6,0,16.7,6,16.7,15v30.3c0,3.9,1.5,5.3,4.7,5.3c0.6,0,1.1-0.1,1.2-0.2v3.5c-0.2,0-0.7,0.1-1.4,0.1
			c-4.9,0-7.9-2-8.3-7.1c-5.3,5.2-11.3,8.2-18.3,8.2C2363.9,1579.3,2358,1574.3,2358,1566.5z M2373,1576c6.8,0,12.3-3.1,17.5-8.7
			v-15.4c-19.1,0.8-28.6,4.6-28.6,14.5C2362,1572.3,2366.4,1576,2373,1576z"/>
		<path d="M2413.8,1501h4v10.1h-4V1501z M2413.9,1525.7h3.9v52.3h-3.9V1525.7z"/>
		<path d="M2436.8,1525.7h3.5l0.4,8.7c6.2-6.2,12.3-10,19.8-10c10.3,0,15.7,6.1,15.7,16.5v37.1h-4v-37.1c0-8.4-4-13.2-12.2-13.2
			c-7.3,0-13.4,4.2-19.2,10.6v39.7h-4V1525.7z"/>
		<path d="M2522.7,1506.6h28.8c17,0,22.6,10.3,22.6,20.4v0.2c0,8.3-4.5,17.7-17,19.9l16.6,30.9h-4.5l-15.9-30.5
			c-0.7,0.1-1.3,0.1-2,0.1h-24.5v30.4h-4.1V1506.6z M2551.3,1544c14.2,0,18.8-8.9,18.8-16.8v-0.2c0-8.3-4.5-16.7-18.6-16.7h-24.7
			v33.8H2551.3z"/>
		<path d="M2584.9,1552.5v-0.2c0-17.9,9.9-28.1,23.8-28.1c13.4,0,19.8,8.9,19.8,21.7c0,1.2-0.1,3.1-0.2,4.2h-39.3c0,0.7,0,1.4,0,2.1
			v0.2c0,15.1,7.7,23.4,19.9,23.4c5.7,0,11.1-1.8,15.8-5.2l2.1,3c-5.5,3.8-11.4,5.7-18.3,5.7
			C2594.3,1579.3,2584.9,1569.7,2584.9,1552.5z M2589.2,1546.9h35.3v-0.9c0-10.7-4.8-18.3-15.9-18.3
			C2598.3,1527.7,2590.9,1534.2,2589.2,1546.9z"/>
		<path d="M2637.6,1574.6l2.1-3.3c5,3,10.4,4.6,16.9,4.6c8.8,0,14-4.5,14-10.8c0-6.9-4.6-9.4-14.5-11.8
			c-11.1-2.8-16.8-5.9-16.8-14.7c0-8.3,6.4-14.4,17.9-14.4c5.8,0,11.4,1.6,16,4l-1.9,3.3c-4.2-2.3-9.1-3.9-14.1-3.9
			c-9,0-14,4.5-14,10.8c0,6.7,4.3,8.9,14.3,11.4c11.1,2.8,17,5.9,17,15.1c0,8.5-6.7,14.5-17.9,14.5
			C2649.4,1579.4,2643.4,1577.8,2637.6,1574.6z"/>
		<path d="M2684.6,1551.9v-0.2c0-17.1,9.8-27.4,23.7-27.4c13.9,0,23.6,10.3,23.6,27.4v0.2c0,17.1-9.7,27.5-23.6,27.5
			C2694.4,1579.4,2684.6,1569,2684.6,1551.9z M2727.9,1551.9v-0.2c0-15.1-8-24.1-19.6-24.1s-19.6,9-19.6,24.1v0.2
			c0,15.2,8,24.1,19.6,24.1S2727.9,1567.1,2727.9,1551.9z"/>
		<path d="M2747,1501h3.9v77h-3.9V1501z"/>
		<path d="M2764.1,1525.7h4.1l16.7,47.9h0.2l16.8-47.9h4.1l-18.8,52.3h-4.4L2764.1,1525.7z"/>
		<path d="M2818.9,1501h4v10.1h-4V1501z M2819,1525.7h3.9v52.3h-3.9V1525.7z"/>
		<path d="M2841.9,1525.7h3.5l0.4,8.7c6.2-6.2,12.3-10,19.8-10c10.3,0,15.7,6.1,15.7,16.5v37.1h-4v-37.1c0-8.4-4-13.2-12.2-13.2
			c-7.3,0-13.4,4.2-19.2,10.6v39.7h-4V1525.7z"/>
		<path d="M2905.1,1559.4c-1.7,1.4-2.8,3.5-2.8,5.8c0,5.3,5,6.8,16,7.3c15.7,0.6,22.7,3.8,22.7,13.1s-7.8,14.1-24.3,14.1
			c-15.8,0-23-4.9-23-13.6c0-6,3.8-10.4,9.6-12.9c-3.1-1.6-4.6-4.2-4.6-7.4c0-3.2,1.5-6,3.9-7.9c-4.7-3.4-7.3-8.7-7.3-15
			c0-10.7,7.8-18.7,20-18.7c5.4,0,10,1.5,13.4,4.2c2.8-2.5,6-4.1,10-4.1c1.5,0,3.2,0.2,4.5,0.5l-0.7,3.4c-1.3-0.3-2.7-0.5-3.9-0.5
			c-3.2,0-5.6,1-7.9,2.7c3,3.3,4.6,7.7,4.6,12.5c0,10.7-7.8,18.7-20,18.7C2911.6,1561.7,2908.1,1560.9,2905.1,1559.4z M2917,1596.5
			c13.9,0,20.2-3.6,20.2-10.6c0-6.9-5.5-9.2-19.1-9.6c-4.6-0.1-8.4-0.6-11.3-1.5c-5.6,1.9-9,5.9-9,11.1
			C2897.8,1592.7,2903.5,1596.5,2917,1596.5z M2931.6,1543c0-8.8-6-15.5-16.1-15.5s-16.1,6.7-16.1,15.5c0,8.7,6.1,15.4,16.1,15.4
			C2925.5,1558.4,2931.6,1551.7,2931.6,1543z"/>
		<path d="M2140.2,1613.2h3.1v25.8c4.7-4.8,9.5-7.7,15.2-7.7c8,0,12.2,4.7,12.2,12.8v28.8h-3.1v-28.8c0-6.5-3.1-10.2-9.5-10.2
			c-5.7,0-10.3,3.2-14.9,8.2v30.7h-3.1V1613.2z"/>
		<path d="M2184.9,1613.2h3.1v7.8h-3.1V1613.2z M2185,1632.3h3v40.5h-3V1632.3z"/>
		<path d="M2199,1663.9c0-9.2,8.4-13,25.2-13.8v-7.1c0-5.4-2.9-8.9-10-8.9c-4.4,0-9,1.6-12.7,3.7l-1.4-2.5c4-2.2,9.2-3.9,14.2-3.9
			c9,0,13,4.7,13,11.6v23.5c0,3,1.2,4.1,3.6,4.1c0.5,0,0.9-0.1,0.9-0.2v2.7c-0.2,0-0.6,0.1-1.1,0.1c-3.8,0-6.1-1.6-6.4-5.5
			c-4.1,4-8.8,6.3-14.1,6.3C2203.5,1673.8,2199,1670,2199,1663.9z M2210.6,1671.2c5.3,0,9.6-2.4,13.6-6.7v-11.9
			c-14.8,0.6-22.1,3.6-22.1,11.2C2202,1668.4,2205.4,1671.2,2210.6,1671.2z"/>
		<path d="M2241.9,1632.3h2.7l0.3,6.7c4.8-4.8,9.6-7.7,15.3-7.7c8,0,12.2,4.7,12.2,12.8v28.8h-3.1v-28.8c0-6.5-3.1-10.2-9.5-10.2
			c-5.7,0-10.3,3.2-14.9,8.2v30.7h-3.1V1632.3z"/>
		<path d="M2285.2,1660.2h3.5v12.6h-3.5V1660.2z"/>
		<path d="M2302.5,1635.3h-8.2v-2.6h8.2v-4.7c0-11.1,6.2-15.7,15.1-15.7c4.6,0,8.7,1.4,12.1,3.5v57h-3.1v-55.6
			c-2.5-1.3-5.7-2.2-8.9-2.2c-7.1,0-12.1,3.4-12.1,13v4.7h11.8v2.6h-11.8v37.5h-3.1V1635.3z"/>
		<path d="M2341.3,1653.1v-0.2c0-13.8,7.7-21.7,18.4-21.7c10.3,0,15.3,6.9,15.3,16.8c0,0.9-0.1,2.4-0.2,3.2h-30.4c0,0.6,0,1.1,0,1.7
			v0.2c0,11.7,5.9,18.1,15.4,18.1c4.4,0,8.6-1.4,12.2-4l1.7,2.3c-4.3,2.9-8.8,4.4-14.1,4.4
			C2348.7,1673.8,2341.3,1666.4,2341.3,1653.1z M2344.7,1648.7h27.3v-0.7c0-8.3-3.7-14.1-12.3-14.1
			C2351.7,1633.9,2346,1638.9,2344.7,1648.7z"/>
		<path d="M2394.6,1652.2l-13.5-19.9h3.6l11.8,17.6h0.1l11.7-17.6h3.6l-13.5,19.9l13.9,20.6h-3.6l-12.1-18.3h-0.1l-12.1,18.3h-3.6
			L2394.6,1652.2z"/>
		<path d="M2417.6,1652.7v-0.2c0-13.5,7.6-21.3,18.3-21.3c4.6,0,8.6,1.5,11.8,3.9l-1.8,2.3c-2.9-2.2-6.2-3.4-10-3.4
			c-9,0-15.2,6.8-15.2,18.6v0.2c0,11.8,5.8,18.5,15,18.5c4.4,0,8.1-1.6,11.4-4.2l1.8,2.3c-3.8,2.8-8.1,4.6-13.3,4.6
			C2424.7,1673.8,2417.6,1666.1,2417.6,1652.7z"/>
		<path d="M2454.7,1663.9c0-9.2,8.4-13,25.2-13.8v-7.1c0-5.4-2.9-8.9-10-8.9c-4.4,0-9,1.6-12.7,3.7l-1.4-2.5c4-2.2,9.2-3.9,14.2-3.9
			c9,0,13,4.7,13,11.6v23.5c0,3,1.2,4.1,3.6,4.1c0.5,0,0.9-0.1,0.9-0.2v2.7c-0.2,0-0.6,0.1-1.1,0.1c-3.8,0-6.1-1.6-6.4-5.5
			c-4.1,4-8.8,6.3-14.1,6.3C2459.3,1673.8,2454.7,1670,2454.7,1663.9z M2466.3,1671.2c5.3,0,9.6-2.4,13.6-6.7v-11.9
			c-14.8,0.6-22.1,3.6-22.1,11.2C2457.8,1668.4,2461.2,1671.2,2466.3,1671.2z"/>
		<path d="M2497.7,1632.3h2.7l0.4,7.1c3.3-5.2,7.3-8.1,13-8.1c1.7,0,3.2,0.2,4.5,0.6l-0.6,2.9c-1.3-0.4-2.7-0.6-4.2-0.6
			c-5.1,0-8.7,2.4-12.6,8.8v29.9h-3.1V1632.3z"/>
		<path d="M2522.4,1632.3h3.2l13,37.1h0.2l13-37.1h3.2l-14.5,40.5h-3.4L2522.4,1632.3z"/>
		<path d="M2560.9,1653.1v-0.2c0-13.8,7.7-21.7,18.4-21.7c10.3,0,15.3,6.9,15.3,16.8c0,0.9-0.1,2.4-0.2,3.2H2564c0,0.6,0,1.1,0,1.7
			v0.2c0,11.7,5.9,18.1,15.4,18.1c4.4,0,8.6-1.4,12.2-4l1.7,2.3c-4.3,2.9-8.8,4.4-14.1,4.4
			C2568.2,1673.8,2560.9,1666.4,2560.9,1653.1z M2564.3,1648.7h27.3v-0.7c0-8.3-3.7-14.1-12.3-14.1
			C2571.3,1633.9,2565.5,1638.9,2564.3,1648.7z"/>
		<path d="M2605.6,1632.3h2.7l0.4,7.1c3.3-5.2,7.3-8.1,13-8.1c1.7,0,3.2,0.2,4.5,0.6l-0.6,2.9c-1.3-0.4-2.7-0.6-4.2-0.6
			c-5.1,0-8.7,2.4-12.6,8.8v29.9h-3.1V1632.3z"/>
		<path d="M2628.2,1660.2h3.5v12.6h-3.5V1660.2z"/>
		<path d="M2644.8,1632.3h2.7l0.3,6.7c4.8-4.8,9.6-7.7,15.3-7.7c8,0,12.2,4.7,12.2,12.8v28.8h-3.1v-28.8c0-6.5-3.1-10.2-9.5-10.2
			c-5.7,0-10.3,3.2-14.9,8.2v30.7h-3.1V1632.3z"/>
		<path d="M2686.3,1653.1v-0.2c0-13.8,7.7-21.7,18.4-21.7c10.3,0,15.3,6.9,15.3,16.8c0,0.9-0.1,2.4-0.2,3.2h-30.4c0,0.6,0,1.1,0,1.7
			v0.2c0,11.7,5.9,18.1,15.4,18.1c4.4,0,8.6-1.4,12.2-4l1.7,2.3c-4.3,2.9-8.8,4.4-14.1,4.4
			C2693.7,1673.8,2686.3,1666.4,2686.3,1653.1z M2689.7,1648.7h27.3v-0.7c0-8.3-3.7-14.1-12.3-14.1
			C2696.7,1633.9,2691,1638.9,2689.7,1648.7z"/>
		<path d="M2733.5,1663.3v-28h-8.2v-2.6h8.2v-13h3v13h13.4v2.6h-13.4v27.9c0,5.7,2.8,7.8,7.6,7.8c2.1,0,4.2-0.6,6.1-1.7l1.2,2.5
			c-2.2,1.2-4.8,1.9-7.5,1.9C2737.4,1673.7,2733.5,1670.6,2733.5,1663.3z"/>
	</g>
	<g>
		<ellipse class="st4" cx="1940.5" cy="1151" rx="159.5" ry="36"/>
		<ellipse class="st5" cx="1941.5" cy="1471" rx="159.5" ry="36"/>
		<line class="st6" x1="1782" y1="1471" x2="1781" y2="1151"/>
		<line class="st6" x1="2101" y1="1471" x2="2100" y2="1151"/>
		<g>
			<path d="M1862.6,1232.6h15.6c19.5,0,30.2,11.1,30.2,29.3v0.2c0,18.2-10.8,29.3-30.2,29.3h-15.6V1232.6z M1878.2,1288.4
				c17.5,0,26.8-9.9,26.8-26.3v-0.2c0-16.4-9.3-26.3-26.8-26.3h-12.3v52.8H1878.2z"/>
			<path d="M1922.1,1232.6h3.9l36.5,54.1h0.1v-54.1h3.3v58.8h-3.9l-36.4-54.1h-0.1v54.1h-3.4V1232.6z"/>
			<path d="M1978.4,1286.3l1.9-2.8c5.7,3.6,12.9,6,19.9,6c10.4,0,16.4-5,16.4-12.7c0-6.8-3.9-10.2-17-13.5
				c-13.3-3.4-19.5-7.6-19.5-15.9c0-9.8,7.7-15.9,20.2-15.9c7,0,13.8,2.4,18.6,5.3l-1.8,2.7c-4.3-2.7-10.7-5-16.8-5
				c-10.3,0-16.8,4.7-16.8,12.8c0,6.6,4.6,9.7,17.2,12.9c13.4,3.4,19.2,7.7,19.2,16.5c0,9.4-7.2,15.8-19.7,15.8
				C1992.4,1292.5,1984.9,1290.2,1978.4,1286.3z"/>
			<path d="M1823.1,1387.1l1.9-2.8c5.7,3.6,12.9,6,19.9,6c10.4,0,16.4-5,16.4-12.7c0-6.8-3.9-10.2-17-13.5
				c-13.3-3.4-19.5-7.6-19.5-15.9c0-9.8,7.7-15.9,20.2-15.9c7,0,13.8,2.4,18.6,5.3l-1.8,2.7c-4.3-2.7-10.7-5-16.8-5
				c-10.3,0-16.8,4.7-16.8,12.8c0,6.6,4.6,9.7,17.2,12.9c13.4,3.4,19.2,7.7,19.2,16.5c0,9.4-7.2,15.8-19.7,15.8
				C1837.2,1393.3,1829.6,1391,1823.1,1387.1z"/>
			<path d="M1873.4,1371.2v-0.2c0-14.7,8.1-23.1,19.6-23.1c11,0,16.3,7.3,16.3,17.9c0,1-0.1,2.5-0.2,3.4h-32.3c0,0.6,0,1.2,0,1.8
				v0.2c0,12.4,6.3,19.2,16.4,19.2c4.7,0,9.2-1.5,13-4.3l1.8,2.4c-4.5,3.1-9.4,4.7-15,4.7
				C1881.3,1393.3,1873.4,1385.4,1873.4,1371.2z M1877.1,1366.6h29.1v-0.8c0-8.8-3.9-15-13.1-15
				C1884.5,1350.8,1878.4,1356.2,1877.1,1366.6z"/>
			<path d="M1921.1,1349.1h2.9l0.4,7.6c3.5-5.5,7.7-8.6,13.8-8.6c1.8,0,3.4,0.3,4.8,0.6l-0.7,3.1c-1.3-0.4-2.9-0.7-4.5-0.7
				c-5.4,0-9.2,2.6-13.4,9.3v31.8h-3.3V1349.1z"/>
			<path d="M1947.4,1349.1h3.4l13.8,39.5h0.2l13.9-39.5h3.4l-15.5,43.1h-3.6L1947.4,1349.1z"/>
			<path d="M1988.3,1371.2v-0.2c0-14.7,8.1-23.1,19.6-23.1c11,0,16.3,7.3,16.3,17.9c0,1-0.1,2.5-0.2,3.4h-32.3c0,0.6,0,1.2,0,1.8
				v0.2c0,12.4,6.3,19.2,16.4,19.2c4.7,0,9.2-1.5,13-4.3l1.8,2.4c-4.5,3.1-9.4,4.7-15,4.7
				C1996.1,1393.3,1988.3,1385.4,1988.3,1371.2z M1991.9,1366.6h29.1v-0.8c0-8.8-3.9-15-13.1-15
				C1999.4,1350.8,1993.2,1356.2,1991.9,1366.6z"/>
			<path d="M2035.9,1349.1h2.9l0.4,7.6c3.5-5.5,7.7-8.6,13.8-8.6c1.8,0,3.4,0.3,4.8,0.6l-0.7,3.1c-1.3-0.4-2.9-0.7-4.5-0.7
				c-5.4,0-9.2,2.6-13.4,9.3v31.8h-3.3V1349.1z"/>
		</g>
	</g>
	<g>
		<ellipse class="st7" cx="2244.8" cy="1147.3" rx="107.8" ry="24.3"/>
		<ellipse class="st7" cx="2245.5" cy="1363.7" rx="107.8" ry="24.3"/>
		<line class="st8" x1="2137.7" y1="1363.7" x2="2137" y2="1147.3"/>
		<line class="st8" x1="2353.3" y1="1363.7" x2="2352.7" y2="1147.3"/>
		<g class="st9">
			<path d="M2192.1,1202.5h10.6c13.2,0,20.4,7.5,20.4,19.8v0.1c0,12.3-7.3,19.8-20.4,19.8h-10.6V1202.5z M2202.7,1240.2
				c11.8,0,18.1-6.7,18.1-17.8v-0.1c0-11.1-6.3-17.8-18.1-17.8h-8.3v35.7H2202.7z"/>
			<path d="M2232.4,1202.5h2.6l24.6,36.6h0.1v-36.6h2.2v39.8h-2.6l-24.6-36.6h-0.1v36.6h-2.3V1202.5z"/>
			<path d="M2270.4,1238.8l1.3-1.9c3.9,2.4,8.7,4,13.5,4c7,0,11.1-3.4,11.1-8.6c0-4.6-2.7-6.9-11.5-9.1c-9-2.3-13.2-5.1-13.2-10.7
				c0-6.6,5.2-10.7,13.6-10.7c4.7,0,9.3,1.6,12.6,3.6l-1.2,1.8c-2.9-1.8-7.2-3.4-11.4-3.4c-7,0-11.4,3.2-11.4,8.6
				c0,4.4,3.1,6.6,11.6,8.7c9.1,2.3,13,5.2,13,11.2c0,6.4-4.9,10.7-13.3,10.7C2279.9,1243,2274.8,1241.5,2270.4,1238.8z"/>
			<path d="M2165.5,1306.9l1.3-1.9c3.9,2.4,8.7,4,13.5,4c7,0,11.1-3.4,11.1-8.6c0-4.6-2.7-6.9-11.5-9.1c-9-2.3-13.2-5.1-13.2-10.7
				c0-6.6,5.2-10.7,13.6-10.7c4.7,0,9.3,1.6,12.6,3.6l-1.2,1.8c-2.9-1.8-7.2-3.4-11.4-3.4c-7,0-11.4,3.2-11.4,8.6
				c0,4.4,3.1,6.6,11.6,8.7c9.1,2.3,13,5.2,13,11.2c0,6.4-4.9,10.7-13.3,10.7C2175,1311.1,2169.8,1309.6,2165.5,1306.9z"/>
			<path d="M2199.5,1296.2v-0.1c0-9.9,5.5-15.6,13.2-15.6c7.4,0,11,4.9,11,12.1c0,0.7-0.1,1.7-0.1,2.3h-21.9c0,0.4,0,0.8,0,1.2v0.1
				c0,8.4,4.3,13,11.1,13c3.2,0,6.2-1,8.8-2.9l1.2,1.6c-3.1,2.1-6.4,3.2-10.2,3.2C2204.8,1311.1,2199.5,1305.8,2199.5,1296.2z
				 M2201.9,1293.1h19.7v-0.5c0-6-2.7-10.2-8.9-10.2C2207,1282.4,2202.8,1286,2201.9,1293.1z"/>
			<path d="M2231.7,1281.3h1.9l0.3,5.1c2.4-3.7,5.2-5.8,9.3-5.8c1.2,0,2.3,0.2,3.2,0.4l-0.5,2.1c-0.9-0.3-1.9-0.5-3-0.5
				c-3.6,0-6.2,1.8-9.1,6.3v21.5h-2.2V1281.3z"/>
			<path d="M2249.5,1281.3h2.3l9.3,26.7h0.1l9.4-26.7h2.3l-10.5,29.1h-2.4L2249.5,1281.3z"/>
			<path d="M2277.1,1296.2v-0.1c0-9.9,5.5-15.6,13.2-15.6c7.4,0,11,4.9,11,12.1c0,0.7-0.1,1.7-0.1,2.3h-21.9c0,0.4,0,0.8,0,1.2v0.1
				c0,8.4,4.3,13,11.1,13c3.2,0,6.2-1,8.8-2.9l1.2,1.6c-3.1,2.1-6.4,3.2-10.2,3.2C2282.4,1311.1,2277.1,1305.8,2277.1,1296.2z
				 M2279.6,1293.1h19.7v-0.5c0-6-2.7-10.2-8.9-10.2C2284.6,1282.4,2280.5,1286,2279.6,1293.1z"/>
			<path d="M2309.3,1281.3h1.9l0.3,5.1c2.4-3.7,5.2-5.8,9.3-5.8c1.2,0,2.3,0.2,3.2,0.4l-0.5,2.1c-0.9-0.3-1.9-0.5-3-0.5
				c-3.6,0-6.2,1.8-9.1,6.3v21.5h-2.2V1281.3z"/>
		</g>
	</g>
	<g>
		<path d="M1680.9,415.4h3.1v26.2c4.8-4.9,9.6-7.8,15.4-7.8c8.1,0,12.3,4.8,12.3,13v29.1h-3.1v-29.1c0-6.6-3.1-10.3-9.6-10.3
			c-5.8,0-10.5,3.3-15,8.3v31.1h-3.1V415.4z"/>
		<path d="M1726.2,415.4h3.1v7.9h-3.1V415.4z M1726.2,434.7h3v41h-3V434.7z"/>
		<path d="M1740.4,466.8c0-9.4,8.5-13.2,25.5-14v-7.2c0-5.4-3-9-10.1-9c-4.5,0-9.1,1.6-12.9,3.8l-1.4-2.6c4.1-2.2,9.3-4,14.4-4
			c9.1,0,13.1,4.7,13.1,11.8v23.8c0,3,1.2,4.2,3.7,4.2c0.5,0,0.9-0.1,1-0.2v2.7c-0.2,0-0.6,0.1-1.1,0.1c-3.8,0-6.2-1.6-6.5-5.6
			c-4.2,4.1-8.9,6.4-14.3,6.4C1745,476.8,1740.4,472.9,1740.4,466.8z M1752.2,474.2c5.4,0,9.7-2.4,13.8-6.8v-12.1
			c-15,0.6-22.4,3.6-22.4,11.4C1743.5,471.3,1747,474.2,1752.2,474.2z"/>
		<path d="M1783.9,434.7h2.7l0.3,6.8c4.9-4.9,9.7-7.8,15.5-7.8c8.1,0,12.3,4.8,12.3,13v29.1h-3.1v-29.1c0-6.6-3.1-10.3-9.6-10.3
			c-5.8,0-10.5,3.3-15,8.3v31.1h-3.1V434.7z"/>
		<path d="M1827.7,463h3.5v12.8h-3.5V463z"/>
		<path d="M1845.3,437.8h-8.3v-2.6h8.3v-4.7c0-11.3,6.2-15.9,15.3-15.9c4.6,0,8.8,1.4,12.2,3.5v57.8h-3.1v-56.3
			c-2.6-1.4-5.8-2.2-9-2.2c-7.2,0-12.2,3.4-12.2,13.1v4.8h12v2.6h-12v38h-3.1V437.8z"/>
		<path d="M1884.6,455.8v-0.2c0-14,7.8-22,18.6-22c10.5,0,15.5,7,15.5,17c0,1-0.1,2.4-0.2,3.3h-30.8c0,0.6,0,1.1,0,1.7v0.2
			c0,11.8,6,18.3,15.6,18.3c4.5,0,8.7-1.4,12.4-4.1l1.7,2.3c-4.3,3-9,4.5-14.3,4.5C1892,476.8,1884.6,469.3,1884.6,455.8z
			 M1888,451.4h27.7v-0.7c0-8.4-3.8-14.3-12.5-14.3C1895.1,436.3,1889.3,441.5,1888,451.4z"/>
		<path d="M1938.6,454.9l-13.7-20.2h3.6l11.9,17.8h0.1l11.8-17.8h3.6l-13.7,20.2l14.1,20.9h-3.7l-12.2-18.6h-0.1l-12.2,18.6h-3.6
			L1938.6,454.9z"/>
		<path d="M1961.8,455.4v-0.2c0-13.7,7.7-21.6,18.6-21.6c4.6,0,8.7,1.5,12,3.9l-1.8,2.3c-3-2.2-6.2-3.4-10.2-3.4
			c-9.1,0-15.4,6.9-15.4,18.8v0.2c0,11.9,5.8,18.7,15.2,18.7c4.5,0,8.2-1.6,11.5-4.2l1.8,2.3c-3.8,2.9-8.2,4.6-13.4,4.6
			C1969,476.8,1961.8,469,1961.8,455.4z"/>
		<path d="M1999.4,466.8c0-9.4,8.5-13.2,25.5-14v-7.2c0-5.4-3-9-10.1-9c-4.5,0-9.1,1.6-12.9,3.8l-1.4-2.6c4.1-2.2,9.3-4,14.4-4
			c9.1,0,13.1,4.7,13.1,11.8v23.8c0,3,1.2,4.2,3.7,4.2c0.5,0,0.9-0.1,1-0.2v2.7c-0.2,0-0.6,0.1-1.1,0.1c-3.8,0-6.2-1.6-6.5-5.6
			c-4.2,4.1-8.9,6.4-14.3,6.4C2004,476.8,1999.4,472.9,1999.4,466.8z M2011.1,474.2c5.4,0,9.7-2.4,13.8-6.8v-12.1
			c-15,0.6-22.4,3.6-22.4,11.4C2002.5,471.3,2005.9,474.2,2011.1,474.2z"/>
		<path d="M2042.9,434.7h2.7l0.4,7.2c3.4-5.3,7.4-8.2,13.1-8.2c1.7,0,3.3,0.2,4.6,0.6l-0.6,3c-1.3-0.4-2.7-0.6-4.2-0.6
			c-5.1,0-8.8,2.5-12.8,8.9v30.2h-3.1V434.7z"/>
		<path d="M2067.9,434.7h3.2l13.1,37.6h0.2l13.2-37.6h3.2l-14.7,41h-3.4L2067.9,434.7z"/>
		<path d="M2106.9,455.8v-0.2c0-14,7.8-22,18.6-22c10.5,0,15.5,7,15.5,17c0,1-0.1,2.4-0.2,3.3h-30.8c0,0.6,0,1.1,0,1.7v0.2
			c0,11.8,6,18.3,15.6,18.3c4.5,0,8.7-1.4,12.4-4.1l1.7,2.3c-4.3,3-9,4.5-14.3,4.5C2114.3,476.8,2106.9,469.3,2106.9,455.8z
			 M2110.3,451.4h27.7v-0.7c0-8.4-3.8-14.3-12.5-14.3C2117.4,436.3,2111.6,441.5,2110.3,451.4z"/>
		<path d="M2152.2,434.7h2.7l0.4,7.2c3.4-5.3,7.4-8.2,13.1-8.2c1.7,0,3.3,0.2,4.6,0.6l-0.6,3c-1.3-0.4-2.7-0.6-4.2-0.6
			c-5.1,0-8.8,2.5-12.8,8.9v30.2h-3.1V434.7z"/>
		<path d="M2175.1,463h3.5v12.8h-3.5V463z"/>
		<path d="M2191.9,434.7h2.7l0.3,6.8c4.9-4.9,9.7-7.8,15.5-7.8c8.1,0,12.3,4.8,12.3,13v29.1h-3.1v-29.1c0-6.6-3.1-10.3-9.6-10.3
			c-5.8,0-10.5,3.3-15,8.3v31.1h-3.1V434.7z"/>
		<path d="M2233.9,455.8v-0.2c0-14,7.8-22,18.6-22c10.5,0,15.5,7,15.5,17c0,1-0.1,2.4-0.2,3.3h-30.8c0,0.6,0,1.1,0,1.7v0.2
			c0,11.8,6,18.3,15.6,18.3c4.5,0,8.7-1.4,12.4-4.1l1.7,2.3c-4.3,3-9,4.5-14.3,4.5C2241.4,476.8,2233.9,469.3,2233.9,455.8z
			 M2237.4,451.4h27.7v-0.7c0-8.4-3.8-14.3-12.5-14.3C2244.5,436.3,2238.6,441.5,2237.4,451.4z"/>
		<path d="M2281.7,466.2v-28.4h-8.3v-2.6h8.3v-13.2h3v13.2h13.6v2.6h-13.6V466c0,5.8,2.9,7.9,7.7,7.9c2.1,0,4.2-0.6,6.2-1.8l1.2,2.6
			c-2.2,1.2-4.9,1.9-7.6,1.9C2285.7,476.7,2281.7,473.5,2281.7,466.2z"/>
	</g>
	<line class="st10" x1="1556" y1="1271" x2="1781" y2="1271"/>
	<line class="st10" x1="1940" y1="1115" x2="1940" y2="708"/>
	<line class="st10" x1="1983" y1="1115" x2="2391" y2="955"/>
	<line class="st10" x1="1955" y1="1115" x2="2433" y2="604"/>
	<line class="st11" x1="2100" y1="1260" x2="2153" y2="1260"/>
	<line class="st10" x1="2101" y1="1282" x2="2135" y2="1282"/>
	<g>
		<ellipse class="st4" cx="430.5" cy="1268" rx="159.5" ry="36"/>
		<ellipse class="st5" cx="431.5" cy="1588" rx="159.5" ry="36"/>
		<line class="st6" x1="272" y1="1588" x2="271" y2="1268"/>
		<line class="st6" x1="591" y1="1588" x2="590" y2="1268"/>
		<g>
			<path d="M379.6,1349.6h15.6c19.5,0,30.2,11.1,30.2,29.3v0.2c0,18.2-10.8,29.3-30.2,29.3h-15.6V1349.6z M395.2,1405.4
				c17.5,0,26.8-9.9,26.8-26.3v-0.2c0-16.4-9.3-26.3-26.8-26.3h-12.3v52.8H395.2z"/>
			<path d="M439.1,1349.6h22.9c12.8,0,17.7,6.6,17.7,14.6v0.2c0,6.3-3.2,11.6-10.2,13.7c7.9,1.5,12.8,6.3,12.8,14.3v0.2
				c0,10.2-6.8,15.9-18.4,15.9h-24.8V1349.6z M462.1,1377c10.1,0,14.4-5.6,14.4-12.4v-0.2c0-6.6-3.8-11.8-14.4-11.8h-19.6v24.4
				H462.1z M463.9,1405.5c9.8,0,15-4.7,15-13v-0.2c0-8-5.7-12.4-15-12.4h-21.3v25.6H463.9z"/>
			<path d="M313.1,1504.1l1.9-2.8c5.7,3.6,12.9,6,19.9,6c10.4,0,16.4-5,16.4-12.7c0-6.8-3.9-10.2-17-13.5
				c-13.3-3.4-19.5-7.6-19.5-15.9c0-9.8,7.7-15.9,20.2-15.9c7,0,13.8,2.4,18.6,5.3l-1.8,2.7c-4.3-2.7-10.7-5-16.8-5
				c-10.3,0-16.8,4.7-16.8,12.8c0,6.6,4.6,9.7,17.2,12.9c13.4,3.4,19.2,7.7,19.2,16.5c0,9.4-7.2,15.8-19.7,15.8
				C327.2,1510.3,319.6,1508,313.1,1504.1z"/>
			<path d="M363.4,1488.2v-0.2c0-14.7,8.1-23.1,19.6-23.1c11,0,16.3,7.3,16.3,17.9c0,1-0.1,2.5-0.2,3.4h-32.3c0,0.6,0,1.2,0,1.8v0.2
				c0,12.4,6.3,19.2,16.4,19.2c4.7,0,9.2-1.5,13-4.3l1.8,2.4c-4.5,3.1-9.4,4.7-15,4.7C371.3,1510.3,363.4,1502.4,363.4,1488.2z
				 M367.1,1483.6h29.1v-0.8c0-8.8-3.9-15-13.1-15C374.5,1467.8,368.4,1473.2,367.1,1483.6z"/>
			<path d="M411.1,1466.1h2.9l0.4,7.6c3.5-5.5,7.7-8.6,13.8-8.6c1.8,0,3.4,0.3,4.8,0.6l-0.7,3.1c-1.3-0.4-2.9-0.7-4.5-0.7
				c-5.4,0-9.2,2.6-13.4,9.3v31.8h-3.3V1466.1z"/>
			<path d="M437.4,1466.1h3.4l13.8,39.5h0.2l13.9-39.5h3.4l-15.5,43.1h-3.6L437.4,1466.1z"/>
			<path d="M478.3,1488.2v-0.2c0-14.7,8.1-23.1,19.6-23.1c11,0,16.3,7.3,16.3,17.9c0,1-0.1,2.5-0.2,3.4h-32.3c0,0.6,0,1.2,0,1.8v0.2
				c0,12.4,6.3,19.2,16.4,19.2c4.7,0,9.2-1.5,13-4.3l1.8,2.4c-4.5,3.1-9.4,4.7-15,4.7C486.1,1510.3,478.3,1502.4,478.3,1488.2z
				 M481.9,1483.6h29.1v-0.8c0-8.8-3.9-15-13.1-15C489.4,1467.8,483.2,1473.2,481.9,1483.6z"/>
			<path d="M525.9,1466.1h2.9l0.4,7.6c3.5-5.5,7.7-8.6,13.8-8.6c1.8,0,3.4,0.3,4.8,0.6l-0.7,3.1c-1.3-0.4-2.9-0.7-4.5-0.7
				c-5.4,0-9.2,2.6-13.4,9.3v31.8h-3.3V1466.1z"/>
		</g>
	</g>
	<g>
		<path class="st12" d="M397.7,503.8c-29.2,0-52.8,23.6-52.8,52.8c0,29.2,23.6,52.8,52.8,52.8c29.2,0,52.8-23.6,52.8-52.8
			C450.5,527.5,426.9,503.8,397.7,503.8C397.7,503.8,397.7,503.8,397.7,503.8z M419.1,525.6c7.2,5,12.5,12.4,15,20.8
			c-7,4.7-14.3,8.7-21.9,12.1c0.2-3-0.5-5.9-1.9-8.5c-0.1-0.2-0.2-0.4-0.3-0.6C416.3,541.6,419.2,533.7,419.1,525.6z M397.7,518.8
			c2.8,0,5.5,0.3,8.3,0.9c0.7,8.1,0.6,16.3-0.1,24.4c-2.4-1.6-5.3-2.4-8.2-2.4c-0.2,0-0.4,0-0.6,0c-3.5-9.2-8.9-15.4-15.9-19.1
			C386.4,520.1,392,518.8,397.7,518.8L397.7,518.8z M360,553.8c0.7-8.5,4.2-16.6,10-22.8c7.3,3.5,14.4,7.7,21,12.4
			c-2.6,1.3-4.7,3.3-6.2,5.8c-0.1,0.2-0.2,0.4-0.3,0.6C374.8,548.1,366.7,549.6,360,553.8L360,553.8z M376.1,587.7
			c-7-4.9-12.1-12-14.5-20.2c6.8-4.5,13.9-8.5,21.3-11.8c-0.2,2.9,0.4,5.8,1.9,8.3c0.1,0.2,0.2,0.4,0.3,0.5
			C378.8,572.1,375.9,579.8,376.1,587.7z M397.7,546.3c5.7,0,10.3,4.6,10.3,10.3c0,5.7-4.6,10.3-10.3,10.3
			c-5.7,0-10.3-4.6-10.3-10.3S392,546.3,397.7,546.3C397.7,546.3,397.7,546.3,397.7,546.3z M397.9,594.5c-2.8,0-5.5-0.3-8.3-0.9
			c-0.7-8.1-0.6-16.3,0.1-24.4c2.4,1.6,5.3,2.4,8.2,2.4c0.2,0,0.4,0,0.6,0c3.5,9.2,8.9,15.4,15.9,19.1
			C409.2,593.2,403.6,594.5,397.9,594.5L397.9,594.5z M430.4,577c-1.4,2.5-3.1,4.8-5.1,6.9c-7.5-3.6-14.8-7.9-21.6-12.7
			c2.7-1.3,4.9-3.4,6.4-6c0.1-0.2,0.2-0.4,0.3-0.6c10,1.6,18.3,0.1,25.2-4.2C435.1,566.3,433.4,572,430.4,577L430.4,577z"/>
		<path class="st13" d="M272,403.2V871h382.5V403.2H272z M568.2,425.2h16.5v255.2h-16.5V425.2z M494.3,425.2h16.5v255.2h-16.5V425.2
			z M336.4,495.7h121.3V617H336.4L336.4,495.7z M409.6,652.1c0,4.6-3.7,8.3-8.3,8.3c-4.6,0-8.3-3.7-8.3-8.3c0-4.6,3.7-8.3,8.3-8.3
			c0,0,0,0,0,0C405.9,643.8,409.6,647.5,409.6,652.1C409.6,652.1,409.6,652.1,409.6,652.1L409.6,652.1z M385.2,652.1
			c0,4.6-3.7,8.3-8.3,8.3s-8.3-3.7-8.3-8.3c0-4.6,3.7-8.3,8.3-8.3c0,0,0,0,0,0C381.5,643.8,385.2,647.5,385.2,652.1
			C385.2,652.1,385.2,652.1,385.2,652.1L385.2,652.1z M361.2,652.4c0,4.6-3.7,8.3-8.3,8.3c-4.6,0-8.3-3.7-8.3-8.3s3.7-8.3,8.3-8.3
			c0,0,0,0,0,0C357.5,644.1,361.2,647.8,361.2,652.4L361.2,652.4z M285.3,416.5h22.1v22.1h-22.1V416.5z M307.6,857.5h-22.1v-22.1
			h22.1V857.5z M520.2,793.5H323.7V777h196.6L520.2,793.5z M520.2,759.5H323.7v-16.5h196.6L520.2,759.5z M520.2,725.4H323.7v-16.5
			h196.6L520.2,725.4z M547.8,680.4h-16.5V425.2h16.5L547.8,680.4z M605.1,842.3h-54.9V719.8h54.9L605.1,842.3z M605.1,425.2h16.5
			v255.2h-16.5L605.1,425.2z M639.7,815.1h-18v-68h18L639.7,815.1z"/>
	</g>
	<g>
		<path d="M689.1,791.4h23c14.3,0,19,8.6,19,17v0.2c0,8-4.8,17.1-19,17.1h-19.5v25.2h-3.4V791.4z M711.9,822.6
			c11.7,0,15.6-7.4,15.6-14v-0.2c0-6.9-3.7-13.9-15.5-13.9h-19.6v28.1H711.9z"/>
		<path d="M743,791.4h3.4V819h36.6v-27.6h3.4v59.5h-3.4v-28.7h-36.6v28.7H743V791.4z"/>
		<path d="M804.2,791.4h23c14.3,0,19,8.6,19,17v0.2c0,8-4.8,17.1-19,17.1h-19.5v25.2h-3.4V791.4z M827,822.6
			c11.7,0,15.6-7.4,15.6-14v-0.2c0-6.9-3.7-13.9-15.5-13.9h-19.6v28.1H827z"/>
		<path d="M432.5,883.4h2.6v21.1h28v-21.1h2.6v45.5h-2.6v-22h-28v22h-2.6V883.4z"/>
		<path d="M474.4,941.8l0.8-2.1c1.1,0.5,2.4,0.7,3.6,0.7c2.7,0,4.4-1.3,5.8-5.3l2.3-6.4l-12.2-33.2h2.7l10.8,30h0.1l10.6-30h2.5
			L487,935.7c-1.8,5.1-4.4,6.9-8.1,6.9C477.3,942.6,475.9,942.4,474.4,941.8z"/>
		<path d="M509.4,895.6h2l0.4,5c2.7-3.1,6.4-5.9,11.6-5.9c7.9,0,13.2,6.4,13.2,17.4v0.1c0,11-5.3,17.5-13.2,17.5
			c-4.8,0-8.6-2.6-11.5-5.7v17.8h-2.5V895.6z M511.9,903.1v18.5c3.1,3.6,7,6,11.2,6c6.7,0,11-5.7,11-15.3v-0.1
			c0-9.6-4.3-15.3-11-15.3C518.4,896.9,514.8,899.6,511.9,903.1z"/>
		<path d="M543.7,912.7v-0.1c0-11.4,6.3-17.9,15.1-17.9c8.5,0,12.6,5.7,12.6,13.8c0,0.8-0.1,2-0.1,2.7h-25c0,0.5,0,0.9,0,1.4v0.1
			c0,9.6,4.9,14.9,12.7,14.9c3.6,0,7.1-1.2,10.1-3.3l1.4,1.9c-3.5,2.4-7.3,3.6-11.6,3.6C549.7,929.8,543.7,923.6,543.7,912.7z
			 M546.5,909.1h22.5v-0.6c0-6.8-3.1-11.6-10.1-11.6C552.2,896.9,547.5,901,546.5,909.1z"/>
		<path d="M580.5,895.6h2.2l0.3,5.9c2.7-4.3,6-6.6,10.7-6.6c1.4,0,2.7,0.2,3.7,0.5l-0.5,2.4c-1-0.3-2.2-0.5-3.4-0.5
			c-4.2,0-7.2,2-10.4,7.2v24.6h-2.5V895.6z"/>
		<path d="M607.3,921.1V898h-6.8v-2.1h6.8v-10.7h2.5v10.7h11.1v2.1h-11.1V921c0,4.7,2.3,6.4,6.2,6.4c1.7,0,3.4-0.5,5-1.4l1,2.1
			c-1.8,1-4,1.6-6.2,1.6C610.5,929.6,607.3,927.1,607.3,921.1z"/>
		<path d="M625.6,912.7v-0.1c0-11.4,6.3-17.9,15.1-17.9c8.5,0,12.6,5.7,12.6,13.8c0,0.8-0.1,2-0.1,2.7h-25c0,0.5,0,0.9,0,1.4v0.1
			c0,9.6,4.9,14.9,12.7,14.9c3.6,0,7.1-1.2,10.1-3.3l1.4,1.9c-3.5,2.4-7.3,3.6-11.6,3.6C631.6,929.8,625.6,923.6,625.6,912.7z
			 M628.4,909.1h22.5v-0.6c0-6.8-3.1-11.6-10.1-11.6C634.1,896.9,629.4,901,628.4,909.1z"/>
		<path d="M669.4,911.9l-11.1-16.4h2.9l9.7,14.5h0.1l9.6-14.5h2.9l-11.1,16.4l11.4,17h-3l-9.9-15.1h-0.1l-9.9,15.1H658L669.4,911.9z
			"/>
		<path d="M693.4,921.1V898h-6.8v-2.1h6.8v-10.7h2.5v10.7h11.1v2.1h-11.1V921c0,4.7,2.3,6.4,6.2,6.4c1.7,0,3.4-0.5,5-1.4l1,2.1
			c-1.8,1-4,1.6-6.2,1.6C696.7,929.6,693.4,927.1,693.4,921.1z"/>
		<path d="M732.7,883.4h17.6c10.9,0,14.5,6.6,14.5,13v0.1c0,6.1-3.7,13.1-14.6,13.1h-14.9v19.3h-2.6V883.4z M750.2,907.3
			c9,0,12-5.7,12-10.7v-0.1c0-5.3-2.9-10.7-11.8-10.7h-15v21.5H750.2z"/>
		<path d="M773,895.6h2.2l0.3,5.9c2.7-4.3,6-6.6,10.7-6.6c1.4,0,2.7,0.2,3.7,0.5l-0.5,2.4c-1-0.3-2.2-0.5-3.4-0.5
			c-4.2,0-7.2,2-10.4,7.2v24.6H773V895.6z"/>
		<path d="M792.7,912.7v-0.1c0-11.4,6.3-17.9,15.1-17.9c8.5,0,12.6,5.7,12.6,13.8c0,0.8-0.1,2-0.1,2.7h-25c0,0.5,0,0.9,0,1.4v0.1
			c0,9.6,4.9,14.9,12.7,14.9c3.6,0,7.1-1.2,10.1-3.3l1.4,1.9c-3.5,2.4-7.3,3.6-11.6,3.6C798.8,929.8,792.7,923.6,792.7,912.7z
			 M795.5,909.1H818v-0.6c0-6.8-3.1-11.6-10.1-11.6C801.3,896.9,796.6,901,795.5,909.1z"/>
		<path d="M829.6,895.6h2l0.4,5c2.7-3.1,6.4-5.9,11.6-5.9c7.9,0,13.2,6.4,13.2,17.4v0.1c0,11-5.3,17.5-13.2,17.5
			c-4.8,0-8.6-2.6-11.5-5.7v17.8h-2.5V895.6z M832.1,903.1v18.5c3.1,3.6,7,6,11.2,6c6.7,0,11-5.7,11-15.3v-0.1
			c0-9.6-4.3-15.3-11-15.3C838.6,896.9,835,899.6,832.1,903.1z"/>
		<path d="M866.3,895.6h2.2l0.3,5.9c2.7-4.3,6-6.6,10.7-6.6c1.4,0,2.7,0.2,3.7,0.5l-0.5,2.4c-1-0.3-2.2-0.5-3.4-0.5
			c-4.2,0-7.2,2-10.4,7.2v24.6h-2.5V895.6z"/>
		<path d="M886,912.3v-0.1c0-10.9,6.2-17.5,15.1-17.5c8.8,0,15,6.6,15,17.5v0.1c0,10.9-6.2,17.6-15,17.6
			C892.3,929.8,886,923.2,886,912.3z M913.6,912.3v-0.1c0-9.6-5.1-15.3-12.5-15.3s-12.5,5.7-12.5,15.3v0.1c0,9.7,5.1,15.3,12.5,15.3
			S913.6,922,913.6,912.3z"/>
		<path d="M923.1,912.3v-0.1c0-11.1,6.2-17.5,15.1-17.5c3.8,0,7.1,1.2,9.8,3.2l-1.5,1.9c-2.4-1.8-5.1-2.8-8.3-2.8
			c-7.4,0-12.5,5.6-12.5,15.3v0.1c0,9.7,4.7,15.2,12.4,15.2c3.6,0,6.6-1.3,9.4-3.4l1.5,1.9c-3.1,2.3-6.6,3.8-10.9,3.8
			C928.9,929.8,923.1,923.4,923.1,912.3z"/>
		<path d="M953.7,912.7v-0.1c0-11.4,6.3-17.9,15.1-17.9c8.5,0,12.6,5.7,12.6,13.8c0,0.8-0.1,2-0.1,2.7h-25c0,0.5,0,0.9,0,1.4v0.1
			c0,9.6,4.9,14.9,12.7,14.9c3.6,0,7.1-1.2,10.1-3.3l1.4,1.9c-3.5,2.4-7.3,3.6-11.6,3.6C959.8,929.8,953.7,923.6,953.7,912.7z
			 M956.5,909.1H979v-0.6c0-6.8-3.1-11.6-10.1-11.6C962.3,896.9,957.6,901,956.5,909.1z"/>
		<path d="M987.3,926.8l1.4-2.1c3.2,1.9,6.6,2.9,10.8,2.9c5.6,0,8.9-2.9,8.9-6.9c0-4.4-2.9-6-9.2-7.5c-7.1-1.8-10.7-3.8-10.7-9.4
			c0-5.3,4.1-9.2,11.4-9.2c3.7,0,7.3,1,10.2,2.5l-1.2,2.1c-2.7-1.5-5.8-2.5-9-2.5c-5.7,0-8.9,2.9-8.9,6.9c0,4.3,2.7,5.7,9.1,7.3
			c7.1,1.8,10.9,3.8,10.9,9.6c0,5.4-4.3,9.2-11.4,9.2C994.9,929.8,991.1,928.8,987.3,926.8z"/>
		<path d="M1016.5,926.8l1.4-2.1c3.2,1.9,6.6,2.9,10.8,2.9c5.6,0,8.9-2.9,8.9-6.9c0-4.4-2.9-6-9.2-7.5c-7.1-1.8-10.7-3.8-10.7-9.4
			c0-5.3,4.1-9.2,11.4-9.2c3.7,0,7.3,1,10.2,2.5l-1.2,2.1c-2.7-1.5-5.8-2.5-9-2.5c-5.7,0-8.9,2.9-8.9,6.9c0,4.3,2.7,5.7,9.1,7.3
			c7.1,1.8,10.9,3.8,10.9,9.6c0,5.4-4.3,9.2-11.4,9.2C1024.1,929.8,1020.2,928.8,1016.5,926.8z"/>
		<path d="M1046.5,912.3v-0.1c0-10.9,6.2-17.5,15.1-17.5c8.8,0,15,6.6,15,17.5v0.1c0,10.9-6.2,17.6-15,17.6
			C1052.7,929.8,1046.5,923.2,1046.5,912.3z M1074.1,912.3v-0.1c0-9.6-5.1-15.3-12.5-15.3s-12.5,5.7-12.5,15.3v0.1
			c0,9.7,5.1,15.3,12.5,15.3S1074.1,922,1074.1,912.3z"/>
		<path d="M1086,895.6h2.2l0.3,5.9c2.7-4.3,6-6.6,10.7-6.6c1.4,0,2.7,0.2,3.7,0.5l-0.5,2.4c-1-0.3-2.2-0.5-3.4-0.5
			c-4.2,0-7.2,2-10.4,7.2v24.6h-2.5V895.6z"/>
	</g>
	<line class="st10" x1="381" y1="875" x2="381" y2="1232"/>
	<g>
		<path class="st14" d="M1234.5,770c-19.3,0-35-15.7-35-35V440.5c0-19.3,15.7-35,35-35H1426c19.3,0,35,15.7,35,35V735
			c0,19.3-15.7,35-35,35H1234.5z"/>
		<path class="st1" d="M1426,410.5c16.5,0,30,13.5,30,30V735c0,16.5-13.5,30-30,30h-191.5c-16.5,0-30-13.5-30-30V440.5
			c0-16.5,13.5-30,30-30H1426 M1426,400.5h-191.5c-22,0-40,18-40,40V735c0,22,18,40,40,40H1426c22,0,40-18,40-40V440.5
			C1466,418.5,1448,400.5,1426,400.5L1426,400.5z"/>
	</g>
	<g>
		<path d="M1215.1,563.9h2.5v6.4h-2.5V563.9z M1215.1,579.6h2.5V613h-2.5V579.6z"/>
		<path d="M1229.7,579.6h2.2l0.3,5.5c4-4,7.9-6.4,12.6-6.4c6.6,0,10,3.9,10,10.5V613h-2.5v-23.7c0-5.3-2.5-8.4-7.8-8.4
			c-4.7,0-8.5,2.7-12.2,6.8V613h-2.5V579.6z"/>
		<path d="M1264,596.3v-0.1c0-11,5.2-17.4,13.2-17.4c4.7,0,8.6,2.5,11.5,5.7v-20.5h2.5V613h-2.1l-0.3-5.1c-2.7,3-6.4,5.9-11.6,5.9
			C1269.2,613.8,1264,607.3,1264,596.3z M1288.7,605.4V587c-3.1-3.6-7-6-11.2-6c-6.8,0-11,5.7-11,15.3v0.1c0,9.6,4.2,15.3,11,15.3
			C1282.2,611.6,1285.8,608.9,1288.7,605.4z"/>
		<path d="M1300.5,596.7v-0.1c0-11.4,6.3-17.9,15.1-17.9c8.5,0,12.6,5.7,12.6,13.8c0,0.8-0.1,2-0.1,2.7h-25c0,0.5,0,0.9,0,1.4v0.1
			c0,9.6,4.9,14.9,12.7,14.9c3.6,0,7.1-1.2,10.1-3.3l1.4,1.9c-3.5,2.4-7.3,3.6-11.6,3.6C1306.6,613.8,1300.5,607.7,1300.5,596.7z
			 M1303.3,593.2h22.5v-0.6c0-6.8-3.1-11.6-10.1-11.6C1309.1,580.9,1304.4,585.1,1303.3,593.2z"/>
		<path d="M1344.4,596l-11.1-16.4h2.9l9.7,14.5h0.1l9.6-14.5h2.9l-11.1,16.4l11.4,17h-3l-9.9-15.1h-0.1l-9.9,15.1h-2.9L1344.4,596z"
			/>
		<path d="M1365.4,602.6h2.9V613h-2.9V602.6z"/>
		<path d="M1379,563.9h2.5v21.3c3.9-4,7.8-6.4,12.5-6.4c6.6,0,10,3.9,10,10.5V613h-2.5v-23.7c0-5.3-2.5-8.4-7.8-8.4
			c-4.7,0-8.5,2.7-12.2,6.8V613h-2.5V563.9z"/>
		<path d="M1417.6,605.2v-23.1h-6.8V580h6.8v-10.7h2.5V580h11.1v2.1h-11.1V605c0,4.7,2.3,6.4,6.2,6.4c1.7,0,3.4-0.5,5-1.4l1,2.1
			c-1.8,1-4,1.6-6.2,1.6C1420.9,613.7,1417.6,611.2,1417.6,605.2z"/>
		<path d="M1438.7,579.6h2.2l0.3,5.5c3.9-3.9,7.5-6.4,12.2-6.4c5,0,8.1,2.4,9.1,6.7c4.4-4.5,8.1-6.7,12.5-6.7
			c6.3,0,9.6,3.9,9.6,10.5V613h-2.5v-23.7c0-5.3-2.4-8.3-7.4-8.3c-4.5,0-8.1,2.7-11.8,6.8c0.1,0.5,0.1,1,0.1,1.6V613h-2.5v-23.7
			c0-5.3-2.4-8.4-7.4-8.4c-4.5,0-8.1,2.7-11.7,6.8V613h-2.5V579.6z"/>
		<path d="M1496.4,563.9h2.5V613h-2.5V563.9z"/>
	</g>
	<g>
		<path class="st14" d="M1234.1,1257.2c-19.3,0-35-15.7-35-35V927.8c0-19.3,15.7-35,35-35h191.5c19.3,0,35,15.7,35,35v294.5
			c0,19.3-15.7,35-35,35H1234.1z"/>
		<path class="st1" d="M1425.6,897.8c16.5,0,30,13.5,30,30v294.5c0,16.5-13.5,30-30,30h-191.5c-16.5,0-30-13.5-30-30V927.8
			c0-16.5,13.5-30,30-30H1425.6 M1425.6,887.8h-191.5c-22,0-40,18-40,40v294.5c0,22,18,40,40,40h191.5c22,0,40-18,40-40V927.8
			C1465.6,905.8,1447.6,887.8,1425.6,887.8L1425.6,887.8z"/>
	</g>
	<g>
		<path d="M1214.3,1066.9h2.2l0.3,5.5c3.9-3.9,7.5-6.4,12.2-6.4c5,0,8.1,2.4,9.1,6.7c4.4-4.5,8.1-6.7,12.5-6.7
			c6.3,0,9.6,3.9,9.6,10.5v23.7h-2.5v-23.7c0-5.3-2.4-8.3-7.4-8.3c-4.5,0-8.1,2.7-11.8,6.8c0.1,0.5,0.1,1,0.1,1.6v23.7h-2.5v-23.7
			c0-5.3-2.4-8.4-7.4-8.4c-4.5,0-8.1,2.7-11.7,6.8v25.3h-2.5V1066.9z"/>
		<path d="M1268.7,1092.9c0-7.6,6.9-10.7,20.7-11.4v-5.9c0-4.4-2.4-7.3-8.2-7.3c-3.6,0-7.4,1.3-10.5,3.1l-1.2-2.1
			c3.3-1.8,7.5-3.2,11.7-3.2c7.4,0,10.7,3.8,10.7,9.6v19.3c0,2.5,1,3.4,3,3.4c0.4,0,0.7-0.1,0.8-0.1v2.2c-0.1,0-0.5,0.1-0.9,0.1
			c-3.1,0-5-1.3-5.3-4.6c-3.4,3.3-7.2,5.2-11.6,5.2C1272.4,1101.1,1268.7,1097.9,1268.7,1092.9z M1278.2,1098.9
			c4.4,0,7.9-2,11.2-5.5v-9.8c-12.2,0.5-18.2,2.9-18.2,9.2C1271.2,1096.6,1274,1098.9,1278.2,1098.9z"/>
		<path d="M1304.2,1051.2h2.5v6.4h-2.5V1051.2z M1304.3,1066.9h2.5v33.3h-2.5V1066.9z"/>
		<path d="M1318.9,1066.9h2.2l0.3,5.5c4-4,7.9-6.4,12.6-6.4c6.6,0,10,3.9,10,10.5v23.7h-2.5v-23.7c0-5.3-2.5-8.4-7.8-8.4
			c-4.7,0-8.5,2.7-12.2,6.8v25.3h-2.5V1066.9z"/>
		<path d="M1354.4,1089.8h2.9v10.4h-2.9V1089.8z"/>
		<path d="M1365.6,1083.7v-0.1c0-11.1,6.2-17.5,15.1-17.5c3.8,0,7.1,1.2,9.8,3.2l-1.5,1.9c-2.4-1.8-5.1-2.8-8.3-2.8
			c-7.4,0-12.5,5.6-12.5,15.3v0.1c0,9.7,4.7,15.2,12.4,15.2c3.6,0,6.6-1.3,9.4-3.4l1.5,1.9c-3.1,2.3-6.6,3.8-10.9,3.8
			C1371.4,1101.1,1365.6,1094.7,1365.6,1083.7z"/>
		<path d="M1395.9,1098.1l1.4-2.1c3.2,1.9,6.6,2.9,10.8,2.9c5.6,0,8.9-2.9,8.9-6.9c0-4.4-2.9-6-9.2-7.5c-7.1-1.8-10.7-3.8-10.7-9.4
			c0-5.3,4.1-9.2,11.4-9.2c3.7,0,7.3,1,10.2,2.5l-1.2,2.1c-2.7-1.5-5.8-2.5-9-2.5c-5.7,0-8.9,2.9-8.9,6.9c0,4.3,2.7,5.7,9.1,7.3
			c7.1,1.8,10.9,3.8,10.9,9.6c0,5.4-4.3,9.2-11.4,9.2C1403.4,1101.1,1399.6,1100.1,1395.9,1098.1z"/>
		<path d="M1425.1,1098.1l1.4-2.1c3.2,1.9,6.6,2.9,10.8,2.9c5.6,0,8.9-2.9,8.9-6.9c0-4.4-2.9-6-9.2-7.5c-7.1-1.8-10.7-3.8-10.7-9.4
			c0-5.3,4.1-9.2,11.4-9.2c3.7,0,7.3,1,10.2,2.5l-1.2,2.1c-2.7-1.5-5.8-2.5-9-2.5c-5.7,0-8.9,2.9-8.9,6.9c0,4.3,2.7,5.7,9.1,7.3
			c7.1,1.8,10.9,3.8,10.9,9.6c0,5.4-4.3,9.2-11.4,9.2C1432.6,1101.1,1428.8,1100.1,1425.1,1098.1z"/>
	</g>
	<g>
		<path class="st14" d="M1234.1,1643.2c-19.3,0-35-15.7-35-35v-294.5c0-19.3,15.7-35,35-35h191.5c19.3,0,35,15.7,35,35v294.5
			c0,19.3-15.7,35-35,35H1234.1z"/>
		<path class="st1" d="M1425.6,1283.8c16.5,0,30,13.5,30,30v294.5c0,16.5-13.5,30-30,30h-191.5c-16.5,0-30-13.5-30-30v-294.5
			c0-16.5,13.5-30,30-30H1425.6 M1425.6,1273.8h-191.5c-22,0-40,18-40,40v294.5c0,22,18,40,40,40h191.5c22,0,40-18,40-40v-294.5
			C1465.6,1291.8,1447.6,1273.8,1425.6,1273.8L1425.6,1273.8z"/>
	</g>
	<g>
		<path d="M1239.8,1452.9h2.2l0.3,5.5c3.9-3.9,7.5-6.4,12.2-6.4c5,0,8.1,2.4,9.1,6.7c4.4-4.5,8.1-6.7,12.5-6.7
			c6.3,0,9.6,3.9,9.6,10.5v23.7h-2.5v-23.7c0-5.3-2.4-8.3-7.4-8.3c-4.5,0-8.1,2.7-11.8,6.8c0.1,0.5,0.1,1,0.1,1.6v23.7h-2.5v-23.7
			c0-5.3-2.4-8.4-7.4-8.4c-4.5,0-8.1,2.7-11.7,6.8v25.3h-2.5V1452.9z"/>
		<path d="M1294.1,1478.9c0-7.6,6.9-10.7,20.7-11.4v-5.9c0-4.4-2.4-7.3-8.2-7.3c-3.6,0-7.4,1.3-10.5,3.1l-1.2-2.1
			c3.3-1.8,7.5-3.2,11.7-3.2c7.4,0,10.7,3.8,10.7,9.6v19.3c0,2.5,1,3.4,3,3.4c0.4,0,0.7-0.1,0.8-0.1v2.2c-0.1,0-0.5,0.1-0.9,0.1
			c-3.1,0-5-1.3-5.3-4.6c-3.4,3.3-7.2,5.2-11.6,5.2C1297.9,1487.1,1294.1,1483.9,1294.1,1478.9z M1303.7,1484.9
			c4.4,0,7.9-2,11.2-5.5v-9.8c-12.2,0.5-18.2,2.9-18.2,9.2C1296.7,1482.6,1299.5,1484.9,1303.7,1484.9z"/>
		<path d="M1329.7,1437.2h2.5v6.4h-2.5V1437.2z M1329.8,1452.9h2.5v33.3h-2.5V1452.9z"/>
		<path d="M1344.3,1452.9h2.2l0.3,5.5c4-4,7.9-6.4,12.6-6.4c6.6,0,10,3.9,10,10.5v23.7h-2.5v-23.7c0-5.3-2.5-8.4-7.8-8.4
			c-4.7,0-8.5,2.7-12.2,6.8v25.3h-2.5V1452.9z"/>
		<path d="M1379.9,1475.8h2.9v10.4h-2.9V1475.8z"/>
		<path d="M1385.4,1499.6l0.5-2.1c0.7,0.1,1.5,0.3,2.1,0.3c3.7,0,6.2-1.3,6.2-8.3v-36.5h2.5v36.5c0,8.5-3.5,10.5-8.6,10.5
			C1387.3,1499.9,1386.2,1499.7,1385.4,1499.6z M1394.2,1437.2h2.5v6.4h-2.5V1437.2z"/>
		<path d="M1405.6,1484.1l1.4-2.1c3.2,1.9,6.6,2.9,10.8,2.9c5.6,0,8.9-2.9,8.9-6.9c0-4.4-2.9-6-9.2-7.5c-7.1-1.8-10.7-3.8-10.7-9.4
			c0-5.3,4.1-9.2,11.4-9.2c3.7,0,7.3,1,10.2,2.5l-1.2,2.1c-2.7-1.5-5.8-2.5-9-2.5c-5.7,0-8.9,2.9-8.9,6.9c0,4.3,2.7,5.7,9.1,7.3
			c7.1,1.8,10.9,3.8,10.9,9.6c0,5.4-4.3,9.2-11.4,9.2C1413.1,1487.1,1409.3,1486.1,1405.6,1484.1z"/>
	</g>
	<g>
		<path class="st15" d="M641.4,1336.9c-11,0-20-9-20-20v-70.3c0-11.9,3.8-18.9,5.5-20c10.3-0.2,18.6-8.1,18.9-17.9
			c1.4-1.7,8.4-5.1,20-5.1h46.8c15,0,26.6,5.4,28.4,8.2c6.1,9.7,24.9,14.7,40.2,14.7H803c11,0,20,9,20,20v70.3c0,11-9,20-20,20
			H641.4z"/>
		<path class="st1" d="M712.6,1210.6c10.9,0,20.4,3.5,22.8,5.5c8.1,12,29.3,17.5,45.8,17.5H803c7.2,0,13,5.8,13,13v70.3
			c0,7.2-5.8,13-13,13H641.4c-7.2,0-13-5.8-13-13v-70.3c0-6.4,1.3-11,2.3-13.3c10.9-1.7,19.6-9.9,21.7-20.5c2.4-1,7.1-2.2,13.4-2.2
			H712.6 M712.6,1196.6h-46.8c-14.8,0-27,5.2-27,11.5s-5.5,11.5-12.2,11.5s-12.2,12.2-12.2,27v70.3c0,14.8,12.2,27,27,27H803
			c14.8,0,27-12.2,27-27v-70.3c0-14.8-12.2-27-27-27h-21.9c-14.8,0-30.3-5.2-34.3-11.5C742.9,1201.7,727.4,1196.6,712.6,1196.6
			L712.6,1196.6z"/>
	</g>
	<g>
		<path d="M686.3,1249.7h1.7v28.9h-1.7V1249.7z"/>
		<path d="M696.7,1249.7h2.1l10.7,18.4l10.7-18.4h2v28.9h-1.6v-26.7h0l-11.2,19.1l-11.2-19.1h0v26.7h-1.6V1249.7z"/>
		<path d="M729,1264.5L729,1264.5c0-9.3,5.8-15.5,14.6-15.5c3.8,0,7.1,1.2,9.7,3l-1,1.2c-2.4-1.7-5.3-2.8-8.7-2.8
			c-7.9,0-12.9,5.6-12.9,13.9v0.1c0,8,4.6,13.1,12.4,13.1c3.4,0,6.4-0.8,8.3-1.8v-9.9h-9.3v-1.4h10.9v12.2c-2.6,1.5-6.2,2.5-10,2.5
			C734.3,1279.1,729,1273.5,729,1264.5z"/>
	</g>
	<g>
		<path class="st15" d="M806.8,1255.8c-11,0-20-9-20-20v-141.6c0-11.8,6.5-20,12.2-20c14.5,0,26.2-11.2,26.2-25.1
			c0-5.2,8.6-11.1,20-11.1h104.5c12.3,0,27.5,6.9,32.5,14.8c7.6,12,27,21.3,44.4,21.3h65.4c11,0,20,9,20,20v141.6c0,11-9,20-20,20
			H806.8z"/>
		<path class="st1" d="M949.7,1045c10.7,0,23.3,6.3,26.6,11.6c8.9,14,30.5,24.6,50.3,24.6h65.4c7.2,0,13,5.8,13,13v141.6
			c0,7.2-5.8,13-13,13H806.8c-7.2,0-13-5.8-13-13v-141.6c0-8.2,4-12.8,5.2-13c18.2,0,33-14.2,33.2-31.7c0.9-1.4,5.5-4.5,13-4.5
			H949.7 M949.7,1031H845.2c-14.9,0-27,8.1-27,18.1c0,9.9-8.7,18.1-19.2,18.1s-19.2,12.2-19.2,27v141.6c0,14.8,12.2,27,27,27H1092
			c14.8,0,27-12.2,27-27v-141.6c0-14.8-12.2-27-27-27h-65.4c-14.9,0-32.1-8.1-38.4-18.1C981.9,1039.1,964.6,1031,949.7,1031
			L949.7,1031z"/>
	</g>
	<g>
		<path class="st15" d="M811.4,1575.9c-11,0-20-9-20-20v-141.6c0-11.8,6.5-20,12.2-20c14.5,0,26.2-11.2,26.2-25.1
			c0-5.2,8.6-11.1,20-11.1h104.5c12.3,0,27.5,6.9,32.5,14.8c7.6,12,27,21.3,44.4,21.3h65.4c11,0,20,9,20,20v141.6c0,11-9,20-20,20
			H811.4z"/>
		<path class="st1" d="M954.4,1365.1c10.7,0,23.3,6.3,26.6,11.6c8.9,14,30.5,24.6,50.3,24.6h65.4c7.2,0,13,5.8,13,13v141.6
			c0,7.2-5.8,13-13,13H811.4c-7.2,0-13-5.8-13-13v-141.6c0-8.2,4-12.8,5.2-13c18.2,0,33-14.2,33.2-31.7c0.9-1.4,5.5-4.5,13-4.5
			H954.4 M954.4,1351.1H849.9c-14.9,0-27,8.1-27,18.1c0,9.9-8.7,18.1-19.2,18.1s-19.2,12.2-19.2,27v141.6c0,14.8,12.2,27,27,27
			h285.2c14.8,0,27-12.2,27-27v-141.6c0-14.8-12.2-27-27-27h-65.4c-14.9,0-32.1-8.1-38.4-18.1
			C986.5,1359.3,969.2,1351.1,954.4,1351.1L954.4,1351.1z"/>
	</g>
	<line class="st10" x1="1119" y1="1486" x2="1194" y2="1486"/>
	<line class="st10" x1="1107" y1="1159" x2="1194" y2="1159"/>
	<line class="st10" x1="1330" y1="769" x2="1330" y2="888"/>
	<line class="st10" x1="1466" y1="1481" x2="1519" y2="1481"/>
	<line class="st10" x1="1464" y1="690" x2="1517" y2="690"/>
	<line class="st10" x1="1519" y1="1481" x2="1517" y2="691"/>
	<g>
		<path class="st16" d="M812.1,770.2c-19.3,0-35-15.7-35-35V440.8c0-19.3,15.7-35,35-35h191.5c19.3,0,35,15.7,35,35v294.5
			c0,19.3-15.7,35-35,35H812.1z"/>
		<path class="st1" d="M1003.6,410.8c16.5,0,30,13.5,30,30v294.5c0,16.5-13.5,30-30,30H812.1c-16.5,0-30-13.5-30-30V440.8
			c0-16.5,13.5-30,30-30H1003.6 M1003.6,400.8H812.1c-22,0-40,18-40,40v294.5c0,22,18,40,40,40h191.5c22,0,40-18,40-40V440.8
			C1043.6,418.8,1025.6,400.8,1003.6,400.8L1003.6,400.8z"/>
	</g>
	<g>
		<path d="M880.7,443.6h3.1l17.7,45.5h-2.7l-4.9-12.8h-23.3l-4.9,12.8H863L880.7,443.6z M871.5,474H893l-10.7-27.8h-0.1L871.5,474z"
			/>
		<path d="M910.2,443.6h17.6c10.9,0,14.5,6.6,14.5,13v0.1c0,6.1-3.7,13.1-14.6,13.1h-14.9v19.3h-2.6V443.6z M927.7,467.4
			c9,0,12-5.7,12-10.7v-0.1c0-5.3-2.9-10.7-11.8-10.7h-15v21.5H927.7z"/>
		<path d="M951.4,443.6h2.6v45.5h-2.6V443.6z"/>
		<path d="M826.5,636.2l2.4-0.9c1.6,4.5,5,8.4,11.2,8.4c7.9,0,11.3-5.5,11.3-13.2v-30.9h2.6v30.8c0,9.2-4.5,15.6-13.9,15.6
			C832.8,646,828.5,641.6,826.5,636.2z"/>
		<path d="M863.3,641.1l1.5-2.1c4.4,2.8,9.9,4.6,15.4,4.6c8.1,0,12.7-3.8,12.7-9.8c0-5.3-3.1-7.9-13.1-10.5
			c-10.3-2.6-15.1-5.9-15.1-12.3c0-7.6,6-12.3,15.6-12.3c5.4,0,10.7,1.8,14.4,4.1l-1.4,2.1c-3.3-2.1-8.3-3.9-13-3.9
			c-8,0-13,3.6-13,9.9c0,5.1,3.6,7.5,13.3,10c10.4,2.6,14.9,6,14.9,12.8c0,7.3-5.6,12.2-15.3,12.2
			C874.1,645.9,868.3,644.2,863.3,641.1z"/>
		<path d="M902.5,622.4v-0.1c0-14.4,9.3-23.6,21.5-23.6s21.6,9.2,21.6,23.6v0.1c0,14.4-9.4,23.6-21.6,23.6S902.5,636.8,902.5,622.4z
			 M942.9,622.4v-0.1c0-12.9-8.2-21.3-18.9-21.3s-18.9,8.4-18.9,21.3v0.1c0,12.9,8.2,21.3,18.9,21.3S942.9,635.3,942.9,622.4z"/>
		<path d="M956.1,599.6h3l28.2,41.9h0.1v-41.9h2.5v45.5h-3l-28.1-41.9h-0.1v41.9h-2.6V599.6z"/>
		<path d="M863.5,699.8l-16-22.2h3.2l14.4,20.3h0.1l14.4-20.3h3.2l-16,22.2l16.8,23.3h-3.3l-15.1-21.3h-0.1l-15.2,21.3h-3.2
			L863.5,699.8z"/>
		<path d="M891.5,677.6h3.2l16.9,29l16.9-29h3.2v45.5h-2.5v-41.9h-0.1l-17.6,30.1l-17.5-30.1h-0.1v41.9h-2.5V677.6z"/>
		<path d="M945.5,677.6h2.6v43.1h27.2v2.4h-29.8V677.6z"/>
	</g>
	<line class="st10" x1="1044" y1="588" x2="1194" y2="588"/>
	<line class="st10" x1="654" y1="594" x2="780" y2="594"/>
	<g>
		<path d="M909.3,1152.5v-0.1c0-11.1,6.2-17.5,15.1-17.5c3.8,0,7.1,1.2,9.8,3.2l-1.5,1.9c-2.4-1.8-5.1-2.8-8.3-2.8
			c-7.4,0-12.5,5.6-12.5,15.3v0.1c0,9.7,4.7,15.2,12.4,15.2c3.6,0,6.6-1.3,9.4-3.4l1.5,1.9c-3.1,2.3-6.6,3.8-10.9,3.8
			C915,1169.9,909.3,1163.5,909.3,1152.5z"/>
		<path d="M939.5,1166.9l1.4-2.1c3.2,1.9,6.6,2.9,10.8,2.9c5.6,0,8.9-2.9,8.9-6.9c0-4.4-2.9-6-9.2-7.5c-7.1-1.8-10.7-3.8-10.7-9.4
			c0-5.3,4.1-9.2,11.4-9.2c3.7,0,7.3,1,10.2,2.5l-1.2,2.1c-2.7-1.5-5.8-2.5-9-2.5c-5.7,0-8.9,2.9-8.9,6.9c0,4.3,2.7,5.7,9.1,7.3
			c7.1,1.8,10.9,3.8,10.9,9.6c0,5.4-4.3,9.2-11.4,9.2C947.1,1169.9,943.3,1168.9,939.5,1166.9z"/>
		<path d="M968.7,1166.9l1.4-2.1c3.2,1.9,6.6,2.9,10.8,2.9c5.6,0,8.9-2.9,8.9-6.9c0-4.4-2.9-6-9.2-7.5c-7.1-1.8-10.7-3.8-10.7-9.4
			c0-5.3,4.1-9.2,11.4-9.2c3.7,0,7.3,1,10.2,2.5l-1.2,2.1c-2.7-1.5-5.8-2.5-9-2.5c-5.7,0-8.9,2.9-8.9,6.9c0,4.3,2.7,5.7,9.1,7.3
			c7.1,1.8,10.9,3.8,10.9,9.6c0,5.4-4.3,9.2-11.4,9.2C976.3,1169.9,972.4,1168.9,968.7,1166.9z"/>
	</g>
	<g>
		<path d="M913.6,1471.2l2.4-0.9c1.6,4.5,5,8.4,11.2,8.4c7.9,0,11.3-5.5,11.3-13.2v-30.9h2.6v30.8c0,9.2-4.5,15.6-13.9,15.6
			C919.9,1481,915.5,1476.7,913.6,1471.2z"/>
		<path d="M950.3,1476.2l1.5-2.1c4.4,2.8,9.9,4.6,15.4,4.6c8.1,0,12.7-3.8,12.7-9.8c0-5.3-3.1-7.9-13.1-10.5
			c-10.3-2.6-15.1-5.9-15.1-12.3c0-7.6,6-12.3,15.6-12.3c5.4,0,10.7,1.8,14.4,4.1l-1.4,2.1c-3.3-2.1-8.3-3.9-13-3.9
			c-8,0-13,3.6-13,9.9c0,5.1,3.6,7.5,13.3,10c10.4,2.6,14.9,6,14.9,12.8c0,7.3-5.6,12.2-15.3,12.2
			C961.2,1481,955.3,1479.2,950.3,1476.2z"/>
	</g>
	<g>
		<path class="st13" d="M614.2,1018.7c-14.9,0-30.7-7.1-35.3-15.8c-4.6-8.7-20.5-15.8-35.3-15.8h-61.2c-14.9,0-27,7.1-27,15.8
			s-6.3,15.8-14,15.8s-14,12.1-14,27V1146c0,14.8,12.1,27,27,27H705c14.8,0,27-12.2,27-27v-100.3c0-14.8-12.2-27-27-27H614.2z"/>
		<path class="st17" d="M614.2,1018.7c-14.9,0-30.7-7.1-35.3-15.8c-4.6-8.7-20.5-15.8-35.3-15.8h-61.2c-14.9,0-27,7.1-27,15.8
			s-6.3,15.8-14,15.8s-14,12.1-14,27V1146c0,14.8,12.1,27,27,27H705c14.8,0,27-12.2,27-27v-100.3c0-14.8-12.2-27-27-27H614.2z"/>
	</g>
	<g>
		<path d="M524.9,1049.6h8.8c11,0,17,6.1,17,16v0.1c0,10-6,16-17,16h-8.8V1049.6z M533.7,1080.1c9.8,0,15.1-5.4,15.1-14.4v-0.1
			c0-9-5.2-14.4-15.1-14.4h-6.9v28.9H533.7z"/>
		<path d="M566.9,1049.6h2.2l12.9,32.2h-1.9l-3.6-9.1h-16.9l-3.6,9.1H554L566.9,1049.6z M560.2,1071.1h15.6l-7.8-19.7h0
			L560.2,1071.1z"/>
		<path d="M592.8,1051.3h-12.4v-1.7h26.7v1.7h-12.4v30.5h-1.9V1051.3z"/>
		<path d="M618.4,1049.6h2.2l12.9,32.2h-1.9l-3.6-9.1H611l-3.6,9.1h-1.9L618.4,1049.6z M611.6,1071.1h15.6l-7.8-19.7h0L611.6,1071.1
			z"/>
		<path d="M457.2,1130.6l1.7-0.6c1.1,3.2,3.6,5.9,8.1,5.9c5.7,0,8.2-3.9,8.2-9.3v-21.8h1.9v21.8c0,6.5-3.3,11-10.1,11
			C461.8,1137.5,458.7,1134.4,457.2,1130.6z"/>
		<path d="M483.9,1134.1l1.1-1.5c3.2,2,7.2,3.3,11.2,3.3c5.9,0,9.2-2.7,9.2-6.9c0-3.7-2.2-5.6-9.5-7.4c-7.5-1.8-11-4.1-11-8.7
			c0-5.4,4.3-8.7,11.3-8.7c3.9,0,7.8,1.3,10.5,2.9l-1,1.5c-2.4-1.5-6-2.8-9.5-2.8c-5.8,0-9.5,2.6-9.5,7c0,3.6,2.6,5.3,9.7,7.1
			c7.6,1.8,10.8,4.2,10.8,9.1c0,5.1-4.1,8.6-11.1,8.6C491.8,1137.5,487.6,1136.2,483.9,1134.1z"/>
		<path d="M512.5,1120.8L512.5,1120.8c0-10.2,6.8-16.8,15.6-16.8s15.7,6.5,15.7,16.7v0.1c0,10.2-6.8,16.7-15.7,16.7
			S512.5,1131,512.5,1120.8z M541.9,1120.8L541.9,1120.8c0-9.2-6-15.1-13.8-15.1s-13.8,5.9-13.8,15v0.1c0,9.1,6,15,13.8,15
			S541.9,1129.9,541.9,1120.8z"/>
		<path d="M551.5,1104.7h2.2l20.5,29.6h0v-29.6h1.8v32.2h-2.2l-20.5-29.6h0v29.6h-1.9V1104.7z"/>
		<path d="M600.4,1102.2h1.8l-18.9,43.9h-1.8L600.4,1102.2z"/>
		<path d="M616.4,1120.4l-11.6-15.7h2.3l10.5,14.3h0l10.5-14.3h2.3l-11.6,15.7l12.2,16.5h-2.4l-11-15h0l-11.1,15h-2.3L616.4,1120.4z
			"/>
		<path d="M636.8,1104.7h2.4l12.3,20.5l12.3-20.5h2.3v32.2h-1.8v-29.6h0l-12.8,21.3l-12.8-21.3h0v29.6h-1.8V1104.7z"/>
		<path d="M676,1104.7h1.9v30.5h19.8v1.7H676V1104.7z"/>
	</g>
	<line class="st10" x1="433" y1="1087" x2="307" y2="1087"/>
	<line class="st10" x1="313" y1="875" x2="313" y2="1087"/>
</g>
</svg>
